<?xml version="1.0" standalone="no"?><!DOCTYPE svg PUBLIC "-//W3C//DTD SVG 1.1//EN"
        "http://www.w3.org/Graphics/SVG/1.1/DTD/svg11.dtd">
<svg t="1700491390268" class="icon" viewBox="0 0 1024 1024" version="1.1" xmlns="http://www.w3.org/2000/svg" p-id="5035"
     width="128" height="128">
    <path d="M965.138204 0.016004L964.962163 0H59.373916l-0.176041 0.016004C26.486208 0.12803 0 25.798046 0 57.517481v907.092599a59.373916 59.373916 0 0 0 59.373916 59.373916h905.588247a59.373916 59.373916 0 0 0 59.373916-59.373916V57.517481c0-31.719434-26.486208-57.389451-59.197875-57.501477z"
          fill="#CCCCCC" p-id="5036"></path>
    <path d="M928.313573 191.932984h-864.202547V928.089521a32.007502 32.007502 0 0 0 32.007502 32.023505h832.195045a32.007502 32.007502 0 0 0 32.007502-32.023505V191.932984h-32.007502z"
          fill="#FFFFFF" p-id="5037"></path>
    <path d="M736.268563 63.918981l-0.160038 0.016004H96.118528a32.007502 32.007502 0 0 0 0 64.015003h640.150035a32.007502 32.007502 0 0 0 0-64.031007z m96.022505 0a32.007502 32.007502 0 1 0 0.032008 64.047011 32.007502 32.007502 0 0 0-0.032008-64.047011z m96.022505 0a32.007502 32.007502 0 1 0 0.032008 64.047011 32.007502 32.007502 0 0 0-0.032008-64.047011z"
          fill="#FFFFFF" p-id="5038"></path>
    <path d="M359.188185 568.085145H312.073142v39.225193h-31.111292l74.465453-127.66192h-53.42052l-78.226334 132.783121v38.264968H312.073142v53.67658h47.115043v-53.67658h24.821817v-43.386169h-24.821817v-39.225193z m153.203907-88.53275c-32.119528 0-56.141158 10.210393-72.080894 30.583168-15.95574 20.372775-23.925608 47.611159-23.925608 81.61913 0 34.039978 7.969868 61.262358 23.925608 81.651136 15.939736 20.372775 39.961366 30.567164 72.080894 30.567165s56.141158-10.194389 72.080894-30.567165c15.95574-20.372775 23.925608-47.611159 23.925607-81.651136 0-34.007971-7.969868-61.230351-23.925607-81.61913-15.95574-20.372775-39.97737-30.583168-72.080894-30.583168z m34.200016 164.82263c-7.29771 13.235102-18.708385 19.860655-34.21602 19.860655s-26.918309-6.625553-34.216019-19.860655c-7.313714-13.251106-10.978573-30.727202-10.978573-52.444291s3.664859-39.193186 10.978573-52.460296c7.29771-13.235102 18.708385-19.844651 34.216019-19.844651s26.918309 6.609549 34.21602 19.844651c7.313714 13.267109 10.978573 30.743205 10.978573 52.460296s-3.664859 39.193186-10.978573 52.444291z m228.645588-37.064687v-39.225193h-47.115042v39.225193h-31.111292l74.465453-127.66192h-53.420521l-78.226334 132.783121v38.264968h88.292694v53.67658h47.115042v-53.67658h24.821818v-43.386169h-24.821818z"
          fill="#ED7161" p-id="5039"></path>
</svg>