<?xml version="1.0" standalone="no"?><!DOCTYPE svg PUBLIC "-//W3C//DTD SVG 1.1//EN"
        "http://www.w3.org/Graphics/SVG/1.1/DTD/svg11.dtd">
<svg t="1699702054249" class="icon" viewBox="0 0 1024 1024" version="1.1" xmlns="http://www.w3.org/2000/svg"
     p-id="11802"
     width="16" height="16">
    <path d="M919.647 118.99h-812c-11.046 0-20 8.954-20 20v72.793c0 11.045 8.954 20 20 20h50.648V833c0 11.046 8.954 20 20 20h670.703c11.046 0 20-8.954 20-20V231.784h50.648c11.046 0 20-8.955 20-20V138.99c0.001-11.046-8.953-20-19.999-20zM828.999 813H198.296V236.83h630.703V813z m70.648-621.216h-772V158.99h772v32.794z"
          fill="" p-id="11803"></path>
    <path d="M302.595 450.354c0 0.98 0.143 24.284 12.584 48.336 11.725 22.665 36.626 50.413 88.675 53.889 2.038 0.136 4.103 0.205 6.136 0.205 26.113 0 50.696-11.051 69.221-31.116 17.731-19.206 27.9-45.199 27.9-71.313 0-52.737-28.235-77.924-51.921-89.768-24.697-12.349-49.302-12.491-50.337-12.491-8.284 0-15 6.716-15 15v72.258h-72.258c-8.284 0-15 6.716-15 15z m102.258 15c8.284 0 15-6.716 15-15v-70.377c6.425 1.328 14.214 3.589 21.921 7.443 23.448 11.724 35.337 32.898 35.337 62.935 0 39.261-30.738 72.43-67.122 72.43-1.369 0-2.761-0.047-4.137-0.139-30.175-2.015-51.556-14.405-63.548-36.826-3.857-7.212-6.183-14.436-7.585-20.465h70.134z"
          fill="" p-id="11804"></path>
    <path d="M371.63 418.105V291.102s-39.842-5.032-88.183 39.508c-51.748 47.679-38.82 87.495-38.82 87.495H371.63zM575.922 327.976h198.527c9.665 0 17.5-7.835 17.5-17.5s-7.835-17.5-17.5-17.5H575.922c-9.665 0-17.5 7.835-17.5 17.5s7.835 17.5 17.5 17.5zM575.922 390.76h198.527c9.665 0 17.5-7.835 17.5-17.5s-7.835-17.5-17.5-17.5H575.922c-9.665 0-17.5 7.835-17.5 17.5s7.835 17.5 17.5 17.5zM620.038 520.799l44.902 34.716c7.245 5.602 17.579 4.671 23.706-2.131l63.284-70.245 14.989 14.484a9.142 9.142 0 0 0 12.926-0.221l9.379-65.614c1.119-6.864-0.319-8.253-1.262-9.164-3.166-3.059-4.193-4.052-10.544-2.244L712.165 432a9.142 9.142 0 0 0 0.221 12.926l14.36 13.877-53.24 59.095-43.373-33.534a17.503 17.503 0 0 0-22.138 0.596l-107.33 92.622c-7.317 6.314-8.13 17.365-1.816 24.683a17.457 17.457 0 0 0 13.257 6.066c4.05 0 8.119-1.398 11.426-4.251l96.506-83.281zM461.45 667.977H262.922c-9.665 0-17.5 7.835-17.5 17.5s7.835 17.5 17.5 17.5H461.45c9.665 0 17.5-7.835 17.5-17.5s-7.835-17.5-17.5-17.5zM461.45 736.76H262.922c-9.665 0-17.5 7.835-17.5 17.5s7.835 17.5 17.5 17.5H461.45c9.665 0 17.5-7.835 17.5-17.5s-7.835-17.5-17.5-17.5zM772.722 736.76v-33.941c0-9.665-7.835-17.5-17.5-17.5s-17.5 7.835-17.5 17.5v33.941h-14.993v-85.383c0-9.665-7.835-17.5-17.5-17.5s-17.5 7.835-17.5 17.5v85.383h-14.993v-59.383c0-9.665-7.835-17.5-17.5-17.5s-17.5 7.835-17.5 17.5v59.383h-14.993V607.332c0-9.665-7.835-17.5-17.5-17.5s-17.5 7.835-17.5 17.5V736.76H572.75v-46.907c0-9.665-7.835-17.5-17.5-17.5s-17.5 7.835-17.5 17.5v46.907h-4.794c-9.665 0-17.5 7.835-17.5 17.5s7.835 17.5 17.5 17.5h247.851c9.665 0 17.5-7.835 17.5-17.5s-7.835-17.5-17.5-17.5h-8.085zM328.595 877.5h-58.522c-9.665 0-17.5 7.835-17.5 17.5s7.835 17.5 17.5 17.5h58.522c9.665 0 17.5-7.835 17.5-17.5s-7.835-17.5-17.5-17.5zM417.674 877.5h-31.341c-9.665 0-17.5 7.835-17.5 17.5s7.835 17.5 17.5 17.5h31.341c9.665 0 17.5-7.835 17.5-17.5s-7.835-17.5-17.5-17.5zM753.675 877.5H480.077c-9.665 0-17.5 7.835-17.5 17.5s7.835 17.5 17.5 17.5h273.598c9.665 0 17.5-7.835 17.5-17.5s-7.835-17.5-17.5-17.5z"
          fill="" p-id="11805"></path>
</svg>