<?xml version="1.0" standalone="no"?><!DOCTYPE svg PUBLIC "-//W3C//DTD SVG 1.1//EN" "http://www.w3.org/Graphics/SVG/1.1/DTD/svg11.dtd"><svg t="1702562308255" class="icon" viewBox="0 0 1024 1024" version="1.1" xmlns="http://www.w3.org/2000/svg" p-id="14206" xmlns:xlink="http://www.w3.org/1999/xlink" width="16" height="16"><path d="M160 184h512v256H160z" fill="#FFD740" p-id="14207"></path><path d="M672 448H160a8 8 0 0 1-8-8v-256a8 8 0 0 1 8-8h512a8 8 0 0 1 8 8v256a8 8 0 0 1-8 8z m-504-16h496V192h-496v240z" fill="#263238" p-id="14208"></path><path d="M704 944H128c-26.464 0-48-21.536-48-48V144c0-26.464 21.536-48 48-48h576c26.464 0 48 21.536 48 48v752c0 26.464-21.536 48-48 48zM128 112c-17.648 0-32 14.352-32 32v752c0 17.648 14.352 32 32 32h576c17.648 0 32-14.352 32-32V144c0-17.648-14.352-32-32-32H128z" fill="#263238" p-id="14209"></path><path d="M784 1024H192c-26.464 0-48-21.536-48-48v-8a8 8 0 0 1 16 0v8c0 17.648 14.352 32 32 32h592c17.648 0 32-14.352 32-32V224c0-17.648-14.352-32-32-32h-8a8 8 0 0 1 0-16h8c26.464 0 48 21.536 48 48v752c0 26.464-21.536 48-48 48zM848 48h-64a8 8 0 0 1 0-16h64a8 8 0 0 1 0 16z" fill="#263238" p-id="14210"></path><path d="M816 80a8 8 0 0 1-8-8v-64a8 8 0 0 1 16 0v64a8 8 0 0 1-8 8zM936 136h-64a8 8 0 0 1 0-16h64a8 8 0 0 1 0 16z" fill="#263238" p-id="14211"></path><path d="M904 168a8 8 0 0 1-8-8V96a8 8 0 0 1 16 0v64a8 8 0 0 1-8 8zM240 392a8 8 0 0 1-6.304-12.896l112-144a8 8 0 0 1 6.048-3.088 7.472 7.472 0 0 1 6.24 2.688l121.616 136.816 106.096-136.4a8 8 0 1 1 12.624 9.808l-112 144a8 8 0 0 1-12.288 0.4l-121.616-136.816-106.096 136.4A8 8 0 0 1 240 392z" fill="#263238" p-id="14212"></path><path d="M240 384m-24 0a24 24 0 1 0 48 0 24 24 0 1 0-48 0Z" fill="#FFFFFF" p-id="14213"></path><path d="M240 416c-17.648 0-32-14.352-32-32s14.352-32 32-32 32 14.352 32 32-14.352 32-32 32z m0-48a16.016 16.016 0 0 0 0 32 16.016 16.016 0 0 0 0-32z" fill="#263238" p-id="14214"></path><path d="M480 384m-24 0a24 24 0 1 0 48 0 24 24 0 1 0-48 0Z" fill="#FFFFFF" p-id="14215"></path><path d="M480 416c-17.648 0-32-14.352-32-32s14.352-32 32-32 32 14.352 32 32-14.352 32-32 32z m0-48a16.016 16.016 0 0 0 0 32 16.016 16.016 0 0 0 0-32z" fill="#263238" p-id="14216"></path><path d="M352 240m-24 0a24 24 0 1 0 48 0 24 24 0 1 0-48 0Z" fill="#FFFFFF" p-id="14217"></path><path d="M352 272c-17.648 0-32-14.352-32-32s14.352-32 32-32 32 14.352 32 32-14.352 32-32 32z m0-48a16.016 16.016 0 0 0 0 32 16.016 16.016 0 0 0 0-32z" fill="#263238" p-id="14218"></path><path d="M592 240m-24 0a24 24 0 1 0 48 0 24 24 0 1 0-48 0Z" fill="#FFFFFF" p-id="14219"></path><path d="M592 272c-17.648 0-32-14.352-32-32s14.352-32 32-32 32 14.352 32 32-14.352 32-32 32z m0-48a16.016 16.016 0 0 0 0 32 16.016 16.016 0 0 0 0-32zM576 864c-57.344 0-104-46.656-104-104S518.656 656 576 656s104 46.656 104 104S633.344 864 576 864z m0-192c-48.528 0-88 39.488-88 88S527.472 848 576 848s88-39.488 88-88S624.528 672 576 672zM608 528H224a8 8 0 0 1 0-16h384a8 8 0 0 1 0 16zM608 608H224a8 8 0 0 1 0-16h384a8 8 0 0 1 0 16z" fill="#263238" p-id="14220"></path><path d="M643.872 827.872l0.032-0.016A96 96 0 0 0 576 664v96l67.872 67.872z" fill="#40C4FF" p-id="14221"></path><path d="M643.888 835.856a8 8 0 0 1-5.664-2.336l-67.872-67.872a7.936 7.936 0 0 1-2.352-5.648v-96a8 8 0 0 1 8-8c57.344 0 104 46.656 104 104a103.328 103.328 0 0 1-30.432 73.52 8 8 0 0 1-5.68 2.336zM584 756.688l59.632 59.632A87.36 87.36 0 0 0 664 760a88.128 88.128 0 0 0-80-87.648v84.336z" fill="#263238" p-id="14222"></path><path d="M576 856a95.68 95.68 0 0 0 67.904-28.144L576 760h-96a96 96 0 0 0 96 96z" fill="#FF5252" p-id="14223"></path><path d="M576 864a104.128 104.128 0 0 1-104-104 8 8 0 0 1 8-8h96c2.112 0 4.16 0.848 5.664 2.336l67.904 67.856a8 8 0 0 1 0 11.328A103.424 103.424 0 0 1 576 864z m-87.648-96c4.048 44.8 41.808 80 87.648 80a87.36 87.36 0 0 0 56.336-20.384L572.688 768h-84.336z" fill="#263238" p-id="14224"></path><path d="M368 688h-128a8 8 0 0 1 0-16h128a8 8 0 0 1 0 16z" fill="#263238" p-id="14225"></path><path d="M368 768h-128a8 8 0 0 1 0-16h128a8 8 0 0 1 0 16z" fill="#263238" p-id="14226"></path><path d="M368 848h-128a8 8 0 0 1 0-16h128a8 8 0 0 1 0 16z" fill="#263238" p-id="14227"></path><path d="M904 944a8 8 0 0 1-8-8v-32a8 8 0 0 1 16 0v32a8 8 0 0 1-8 8z" fill="#263238" p-id="14228"></path><path d="M904 880a8 8 0 0 1-8-8v-288a8 8 0 0 1 16 0v288a8 8 0 0 1-8 8z" fill="#263238" p-id="14229"></path></svg>