<?xml version="1.0" standalone="no"?><!DOCTYPE svg PUBLIC "-//W3C//DTD SVG 1.1//EN" "http://www.w3.org/Graphics/SVG/1.1/DTD/svg11.dtd"><svg t="1702562131578" class="icon" viewBox="0 0 1024 1024" version="1.1" xmlns="http://www.w3.org/2000/svg" p-id="6431" xmlns:xlink="http://www.w3.org/1999/xlink" width="16" height="16"><path d="M624.5 534.5m-325.5 0a325.5 325.5 0 1 0 651 0 325.5 325.5 0 1 0-651 0Z" fill="#C1E6DE" p-id="6432"></path><path d="M159.534 684.536c46.494-44.727 85.552-62.297 123.134-46.118 16.58 7.137 34.97 12.832 55.177 17.058a39.27 39.27 0 0 1 30.333 30.086c20.969 96.321 92.259 142.26 223.295 142.26 51.56 0 94.224-7.407 127.845-21.876 32.295-13.897 64.764-1.552 102.148 31.796v-220.63c0-94.239-30.647-152.84-90.93-183.574a39.273 39.273 0 0 1-21.42-33.974C704.862 235.03 616.634 159.545 434.403 159.545c-186.515 0-274.87 79.078-274.87 252.468v272.523z m92.085 26.028c2.48 1.067 0.207 1.546-7.93 6.597-14.267 8.859-32.893 25.731-55.043 50.436a61.702 61.702 0 0 1-45.94 20.514C108.625 788.111 81 760.481 81 726.397V412.013C81 193.18 206.34 81 434.404 81c214.652 0 338.605 99.388 352.16 294.146C861.73 422.736 900 504.862 900 617.113v269.384C900 918.81 873.806 945 841.5 945a58.5 58.5 0 0 1-43.55-19.441c-18.66-20.807-34.259-34.932-45.962-42.196-2.558-1.588-4.655-2.678-6.209-3.344-43.357 17.76-94.866 26.35-154.306 26.35-154.92 0-257.22-59.794-293.718-179.782-16.21-4.427-31.593-9.763-46.136-16.023z m70.156 21.795c-21.228-4.438-34.84-25.247-30.401-46.478 4.437-21.23 25.243-34.844 46.471-30.405 28.64 5.988 60.848 9.005 96.56 9.005 186.514 0 274.869-79.078 274.869-252.468 0-4.205-0.053-8.355-0.159-12.449-0.56-21.682 16.56-39.714 38.24-40.274 21.679-0.56 39.708 16.562 40.268 38.244 0.124 4.775 0.185 9.6 0.185 14.479 0 218.833-125.34 331.013-353.404 331.013-40.883 0-78.435-3.517-112.63-10.667z" fill="#0A0B0C" p-id="6433"></path></svg>