<?xml version="1.0" standalone="no"?><!DOCTYPE svg PUBLIC "-//W3C//DTD SVG 1.1//EN" "http://www.w3.org/Graphics/SVG/1.1/DTD/svg11.dtd"><svg t="1702562188929" class="icon" viewBox="0 0 1024 1024" version="1.1" xmlns="http://www.w3.org/2000/svg" p-id="10085" xmlns:xlink="http://www.w3.org/1999/xlink" width="16" height="16"><path d="M487.334 487.118c-134.3 0-243.556-109.26-243.556-243.558C243.778 109.26 353.034 0 487.334 0s243.562 109.26 243.562 243.56c0 134.298-109.262 243.558-243.562 243.558z m0-471.024c-125.424 0-227.462 102.04-227.462 227.466s102.036 227.464 227.462 227.464S714.8 368.984 714.8 243.56 612.758 16.094 487.334 16.094z" fill="#4A555F" p-id="10086"></path><path d="M487.338 452.248c-115.072 0-208.69-93.618-208.69-208.688S372.266 34.872 487.338 34.872c115.066 0 208.684 93.618 208.684 208.688s-93.618 208.688-208.684 208.688z" fill="#FFD452" p-id="10087"></path><path d="M34.566 664.47l-13.978-7.978c2.54-4.456 5.172-8.86 7.874-13.214l13.674 8.492a399.382 399.382 0 0 0-7.57 12.7z m16.156-25.924l-13.328-9.03c3.076-4.532 6.23-9 9.472-13.402l12.962 9.546a397.572 397.572 0 0 0-9.106 12.886z m18.71-25.404l-12.574-10.052a437.176 437.176 0 0 1 10.484-12.612l12.176 10.52a414.86 414.86 0 0 0-10.086 12.144z m20.62-23.872l-11.756-10.996a431.782 431.782 0 0 1 11.442-11.762l11.316 11.442a402.22 402.22 0 0 0-11.002 11.316z m22.43-22.19l-10.856-11.88a422.328 422.328 0 0 1 12.318-10.834l10.394 12.288c-4.02 3.4-7.97 6.876-11.856 10.426z m24.104-20.378l-9.902-12.686a423.532 423.532 0 0 1 13.13-9.846l9.398 13.066a399.882 399.882 0 0 0-12.626 9.466z m25.61-18.434l-8.886-13.422a424.854 424.854 0 0 1 13.862-8.788l8.352 13.758a401.586 401.586 0 0 0-13.328 8.452z m26.964-16.368l-7.796-14.08a417.4 417.4 0 0 1 14.508-7.672l7.24 14.374a403.16 403.16 0 0 0-13.952 7.378z m28.172-14.202l-6.664-14.648a419.476 419.476 0 0 1 15.068-6.506l6.088 14.9a396.702 396.702 0 0 0-14.492 6.254z m29.224-11.932l-5.502-15.126c2.4-0.874 4.82-1.724 7.246-2.554a19.644 19.644 0 0 0 5.36-2.806l9.62 12.902a35.458 35.458 0 0 1-9.77 5.132 395.6 395.6 0 0 0-6.954 2.452z m28.872-24.18l-15.194-5.296a19.158 19.158 0 0 0 1.074-6.3 18.646 18.646 0 0 0-0.64-4.792l15.54-4.202c0.786 2.91 1.19 5.93 1.194 8.974a35.122 35.122 0 0 1-1.974 11.616z m-21.38-26.684a307.3 307.3 0 0 1-10.61-12.674l12.616-9.99a286.644 286.644 0 0 0 10.054 12.002l-12.06 10.662z m-20.512-25.922a299.684 299.684 0 0 1-9.158-13.78l13.654-8.526a279.476 279.476 0 0 0 8.656 13.026l-13.152 9.28z m-17.54-28.048a304.08 304.08 0 0 1-7.566-14.702l14.512-6.966a290.674 290.674 0 0 0 7.156 13.92l-14.102 7.748z m-14.298-29.814a295.034 295.034 0 0 1-5.878-15.468l15.194-5.296a279.132 279.132 0 0 0 5.564 14.622l-14.88 6.142z m-10.886-31.244c-1.52-5.32-2.902-10.712-4.108-16.032l15.696-3.554a276.302 276.302 0 0 0 3.888 15.156l-15.476 4.43zM183.498 287.6a306.522 306.522 0 0 1-2.284-16.38l16-1.782c0.572 5.13 1.294 10.348 2.158 15.51l-15.874 2.652z m-3.658-32.872a304.272 304.272 0 0 1-0.45-16.538h16.094c0 5.23 0.142 10.496 0.43 15.652l-16.074 0.886zM1003.412 1023.998h-16.094v-16.094h16.094v16.094z m0-32.188h-16.094v-16.094h16.094v16.094z m0-32.19h-16.094v-16.094h16.094v16.094z m0-32.188h-16.094v-16.094h16.094v16.094z m0-32.19h-16.094v-16.094h16.094v16.094z m-16.126-32.09a416.426 416.426 0 0 0-0.502-15.778l16.074-0.82c0.278 5.438 0.456 10.902 0.524 16.394l-16.096 0.204z m-1.618-31.512a392.26 392.26 0 0 0-1.74-15.674l15.958-2.098c0.712 5.406 1.316 10.846 1.812 16.316l-16.03 1.456z m-4.082-31.284c-0.89-5.198-1.88-10.362-2.97-15.49l15.748-3.342a408.674 408.674 0 0 1 3.086 16.122l-15.864 2.71z m-6.548-30.852a398.538 398.538 0 0 0-4.186-15.214l15.434-4.572a427.558 427.558 0 0 1 4.354 15.818l-15.602 3.968zM944.4 1024h-16.094v-155.848c0-191.542-155.832-347.372-347.374-347.372h-187.188c-191.542 0-347.374 155.83-347.374 347.372V1024h-16.094v-155.848c0-200.416 163.052-363.468 363.468-363.468h187.188c200.416 0 363.468 163.05 363.468 363.468V1024z" fill="#4A555F" p-id="10088"></path><path d="M580.948 539.564h-187.232c-181.17 0-328.598 147.426-328.598 328.598V1024h844.426v-155.838c0.002-181.172-147.424-328.598-328.596-328.598z m-215.904 266.74l56.384-23.016a35.054 35.054 0 0 1 13.198-2.576c14.27 0 26.986 8.532 32.35 21.782l9.496 23.23 5.74 13.788c17.596-6.118 43.508-26.34 57.994-40.558 17.222-17.488 35.194-42.274 40.826-58.206l-13.68-5.688-23.39-9.55c-17.866-7.244-26.45-27.68-19.206-45.546l23.016-56.386c5.364-13.198 18.078-21.726 32.35-21.726 4.506 0 8.958 0.856 13.198 2.574l23.336 9.548c8.37 3.434 45.708 20.922 56.278 63.522 11.804 47.854-15.718 105.74-81.922 172.05-56.544 56.652-107.082 85.356-150.216 85.356-60.568 0-82.994-53.488-85.462-59.928l-9.442-23.176c-7.242-17.812 1.34-38.252 19.152-45.494z" fill="#F58E6F" p-id="10089"></path><path d="M170.484 911.694h16.094V1024h-16.094zM792.622 911.694h16.094V1024h-16.094zM440.822 942.944c-66.018 0-90.428-58.396-92.994-65.054l-9.388-23.032c-8.938-21.95 1.646-47.082 23.586-56.028l56.388-22.974a42.78 42.78 0 0 1 16.22-3.182 42.834 42.834 0 0 1 39.818 26.776l12.07 29.48c14.974-7.434 35.024-22.918 48.042-35.722 14.57-14.778 28.83-34.102 35.84-48.152l-29.49-12.078c-21.946-8.944-32.53-34.078-23.592-56.03l22.978-56.384c6.632-16.264 22.256-26.774 39.812-26.774 5.584 0 11.038 1.07 16.22 3.182l23.392 9.53c0.278 0.114 0.544 0.242 0.806 0.382 9.786 4.15 48.98 23.362 60.192 68.662 12.568 50.79-15.696 111.238-84.014 179.668-58.11 58.21-110.558 87.726-155.886 87.73z m-6.188-154.178c-3.49 0-6.9 0.67-10.142 1.992l-56.388 22.974c-13.726 5.596-20.348 21.322-14.758 35.054l9.44 23.17c2.216 5.748 22.754 54.892 78.026 54.892v8.048l0.01-8.048c40.896-0.002 89.516-27.932 144.5-83.008 64.058-64.166 90.904-119.488 79.782-164.43-9.688-39.138-44.574-55.154-51.468-57.966a7.576 7.576 0 0 1-0.75-0.352l-22.628-9.218a26.734 26.734 0 0 0-10.142-1.992 26.806 26.806 0 0 0-24.912 16.754l-22.974 56.38c-5.59 13.734 1.026 29.46 14.758 35.054l37.13 15.27a8.044 8.044 0 0 1 4.484 10.108c-6.476 18.306-26.364 44.616-42.662 61.144-13.528 13.306-40.866 35.514-61.082 42.516a8.048 8.048 0 0 1-10.06-4.502l-15.256-37.086a26.794 26.794 0 0 0-24.908-16.754z" fill="#4A555F" p-id="10090"></path><path d="M440.814 908.072c35.234-0.002 80.61-26.8 131.224-77.496 58.258-58.356 84.134-109.068 74.84-146.656-7.502-30.322-34.918-42.878-40.336-45.088l-24.126-9.836a7.874 7.874 0 0 0-2.3-0.336c-3.368 0-6.25 1.938-7.518 5.058l-22.978 56.384c-1.094 2.692-0.434 5.044 0.052 6.208a8.086 8.086 0 0 0 4.4 4.372l23.398 9.532 37.282 15.586-8.45 23.908c-7.774 21.992-29.208 50.036-47 68.074-12.898 12.69-43.344 38.432-68.308 47.072l-23.812 8.242-15.482-37.046-9.546-23.452c-1.268-3.112-4.154-5.052-7.524-5.052-1.058 0-2.058 0.198-3.054 0.604l-56.388 22.974a8.124 8.124 0 0 0-4.454 10.58l9.442 23.172c1.87 4.828 17.922 43.196 60.638 43.196z" fill="#71CCE0" p-id="10091"></path></svg>