<?xml version="1.0" standalone="no"?><!DOCTYPE svg PUBLIC "-//W3C//DTD SVG 1.1//EN"
        "http://www.w3.org/Graphics/SVG/1.1/DTD/svg11.dtd">
<svg t="1699701677589" class="icon" viewBox="0 0 1024 1024" version="1.1" xmlns="http://www.w3.org/2000/svg" p-id="5390"
     width="16" height="16">
    <path d="M603.92448 440.33024c22.29248 0 40.33536-18.17088 40.33536-40.59648 0-22.38976-18.04288-40.576-40.33536-40.576-22.26176 0-40.30976 18.18624-40.30976 40.576C563.61472 422.15936 581.66272 440.33024 603.92448 440.33024zM442.63936 440.33024c22.26176 0 40.32512-18.17088 40.32512-40.59648 0-22.38976-18.06336-40.576-40.32512-40.576-22.272 0-40.33536 18.18624-40.33536 40.576C402.304 422.15936 420.37248 440.33024 442.63936 440.33024zM321.664 399.73376c0-22.38976-18.048-40.576-40.32-40.576-22.28736 0-40.33024 18.18624-40.33024 40.576 0 22.4256 18.04288 40.59648 40.33024 40.59648C303.616 440.33024 321.664 422.15936 321.664 399.73376zM364.81024 698.68544c20.90496 3.4304 42.35776 5.4528 64.37888 5.4528 193.024 0 349.4912-137.78432 349.4912-307.77344 0-169.96864-156.47232-307.77856-349.4912-307.77856-193.00352 0-349.4656 137.80992-349.4656 307.77856 0 98.46784 52.70016 185.92768 134.4 242.25792l0 153.4464L364.81024 698.68544zM133.48352 399.73376c0-141.94688 132.39296-257.024 295.71072-257.024s295.71072 115.07712 295.71072 257.024c0 141.98784-132.39296 257.03936-295.71072 257.03936-23.99232 0-47.2064-2.75456-69.5552-7.43424l-52.37248 35.13856c0.05632 0.02048 0.09728 0.06144 0.15872 0.08192l-39.51616 26.3424 0-95.872C187.0336 569.15456 133.48352 489.94304 133.48352 399.73376zM831.0784 335.83616c0.50688 7.76704 1.35168 15.45728 1.35168 23.3216 0 17.21344-1.6384 34.06848-4.05504 50.7136 36.18304 42.62912 57.81504 95.16032 57.81504 152.21248 0 90.19392-53.53472 169.3952-134.4 215.28576l0 95.87712-39.54176-26.35776c0.06144-0.0256 0.11776-0.04608 0.16384-0.06656l-52.3776-35.13856c-22.3232 4.68992-45.5424 7.43936-69.5552 7.43936-69.61664 0-133.504-21.0432-184.02304-56.04352-14.65344 1.19296-29.46048 1.95072-44.47232 1.95072-10.7008 0-21.19168-0.7936-31.73376-1.3824 63.99488 62.96064 156.70784 102.82496 260.224 102.82496 22.02112 0 43.49952-2.01216 64.384-5.43744l150.6816 93.37856 0-153.46176c81.72544-56.33536 134.4256-143.79008 134.4256-242.24256C939.97056 470.90688 898.01216 391.90528 831.0784 335.83616z"
          fill="#272636" p-id="5391"></path>
</svg>