<?xml version="1.0" standalone="no"?><!DOCTYPE svg PUBLIC "-//W3C//DTD SVG 1.1//EN"
        "http://www.w3.org/Graphics/SVG/1.1/DTD/svg11.dtd">
<svg t="1699701667875" class="icon" viewBox="0 0 1024 1024" version="1.1" xmlns="http://www.w3.org/2000/svg" p-id="5112"
     width="16" height="16">
    <path d="M756.483413 988.050773v1.201494c0.477867 16.861867 12.67712 30.027093 27.7504 30.027093 15.069867 0 27.26912-13.1584 27.746987-30.027093l0.3584-10.407254h0.477867c0.48128-7.656107 0.600747-14.353067 0.600746-20.811093 0-180.616533-100.22912-340.54144-255.245653-407.3984l-17.343147-7.533227 15.305387-11.127466c74.277547-53.828267 118.654293-143.53408 118.654293-240.05632C674.430293 132.83328 555.0592 3.413333 408.17664 3.413333 261.41696 3.413333 142.045867 132.83328 142.045867 291.915093c0 96.52224 44.373333 186.238293 118.654293 240.05632l15.3088 11.127467-17.343147 7.533227C103.645867 617.61536 3.413333 777.540267 3.413333 958.03392c0 6.331733 0.238933 13.028693 0.7168 20.811093h0.720214l0.119466 10.76224c0 17.104213 12.4416 30.979413 27.866454 30.979414 15.3088 0 27.869867-13.8752 27.869866-30.979414 0-0.23552-0.119467-0.7168-0.119466-1.19808-0.119467-0.600747-0.119467-1.201493-0.238934-1.672533a309.326507 309.326507 0 0 1-1.314133-28.822187c0-100.478293 36.23936-195.085653 102.147413-266.257066 65.911467-71.29088 153.818453-110.52032 247.360854-110.52032 93.535573 0 181.326507 39.345493 247.473493 110.639786 65.78176 71.168 102.150827 165.659307 102.150827 266.257067 0 10.519893-0.720213 20.811093-1.437014 29.535573-0.24576 0.119467-0.24576 0.361813-0.24576 0.48128M198.618453 292.15744c0-124.39552 94.132907-225.706667 209.677654-225.706667 115.664213 0 209.677653 101.19168 209.677653 225.706667s-94.132907 225.703253-209.677653 225.703253c-115.54816 0-209.677653-101.31456-209.677654-225.703253m517.31456 277.13536c69.7344 8.25344 132.765013 44.4928 177.98144 101.7856 45.09696 57.173333 69.853867 132.29056 69.853867 211.3536 0 17.462613 12.683947 31.464107 28.35456 31.464107 15.189333 0 27.630933-13.284693 28.228267-30.262614l0.119466-0.959146c0-0.23552 0-0.354987 0.119467-0.477867-0.119467-150.234453-83.490133-283.11552-212.4288-338.500267l-17.462613-7.533226 15.43168-11.127467c61.719893-44.61568 98.679467-119.016107 98.679466-199.389867 0-111.12448-69.137067-206.332587-168.413866-232.40704l-0.7168 0.23552-2.757974-0.23552c-0.597333 0-1.068373-0.119467-1.672533-0.238933-0.23552 0-0.477867-0.119467-0.7168-0.119467-15.906133 0.119467-28.70272 14.472533-28.70272 32.06144 0 15.786667 10.287787 29.067947 24.521387 31.45728l1.317546 0.238934 1.19808 0.597333c1.317547 0.600747 3.47136 1.32096 6.10304 2.034347 0.597333 0.119467 1.071787 0.3584 1.071787 0.3584 65.191253 23.92064 108.96384 89.705813 108.96384 163.867306 0 82.76992-54.418773 153.818453-129.778347 169.728l-1.201493 0.720214-2.5088 0.238933c-17.824427 1.19808-31.81568 17.4592-31.81568 37.075627 0 20.097707 14.353067 36.36224 32.53248 37.20192l2.392747 0.11264 1.307306 0.720213"
          fill="#040000" p-id="5113"></path>
</svg>