<?xml version="1.0" standalone="no"?><!DOCTYPE svg PUBLIC "-//W3C//DTD SVG 1.1//EN" "http://www.w3.org/Graphics/SVG/1.1/DTD/svg11.dtd"><svg t="1704807621521" class="icon" viewBox="0 0 1024 1024" version="1.1" xmlns="http://www.w3.org/2000/svg" p-id="11539" xmlns:xlink="http://www.w3.org/1999/xlink" width="16" height="16"><path d="M0 30.72h960v960H0z" fill="#000000" fill-opacity="0" p-id="11540"></path><path d="M274.28864 716.43136c27.42272-13.71136 47.99488-58.28608 65.13664-65.13664 10.2912-3.4304 51.43552-24.00256 27.43296-85.7088-54.85568-54.86592-92.5696-106.2912-92.5696-226.304h411.42272c0 116.5824-37.71392 171.43808-92.5696 226.304-24.00256 68.56704 13.7216 85.7088 20.57216 85.7088 24.00256 6.8608 82.28864 54.85568 106.2912 65.13664 3.42016 0-133.72416 37.71392-240.00512 34.29376-68.56704 0-137.14432-13.7216-205.7216-34.29376z" fill="#FFE58F" p-id="11541"></path><path d="M480 37.5808c-65.14688 0-202.28096 47.99488-219.43296 164.56704h442.28608C682.2912 92.43648 545.14688 37.5808 480 37.5808z m226.28352 198.8608s-3.4304 0 0 0H253.71648c-10.2912 10.28096-37.71392 17.13152-48.00512 68.56704h548.57728c-17.14176-51.43552-41.14432-58.28608-48.00512-68.57728z" fill="#FAAD14" p-id="11542"></path><path d="M702.85312 236.4416s3.4304 0 0 0v-10.2912c0-6.8608 0-17.14176-3.42016-24.00256H260.56704c0 6.8608-3.42016 17.14176-3.42016 24.00256 0 3.4304-3.4304 6.8608-3.4304 10.28096h449.13664z" fill="#D46B08" p-id="11543"></path><path d="M850.28864 843.29472l-17.14176-34.29376c-24.00256-51.42528-65.14688-85.7088-113.152-109.71136-20.56192-10.28096-44.56448-17.14176-68.56704-20.57216-20.57216-3.4304-37.71392-3.4304-58.28608 0-37.71392 3.4304-71.99744 6.8608-106.2912 6.8608-37.70368 0-75.4176-3.4304-116.56192-6.8608-20.5824-3.4304-41.14432 0-58.28608 0-24.00256 3.4304-48.00512 10.2912-68.57728 20.5824-47.99488 23.99232-89.1392 58.27584-113.14176 109.70112l-17.14176 34.29376c-10.28096 13.71136-13.7216 27.42272-13.7216 44.56448 0 58.28608 44.58496 102.8608 102.8608 102.8608h555.43808c17.14176 0 30.85312-3.4304 44.56448-10.28096 54.85568-27.43296 75.42784-89.14944 48.00512-137.14432z" fill="#FFC53D" p-id="11544"></path><path d="M651.42784 678.71744v106.2912c0 37.71392-30.85312 68.56704-68.56704 68.56704H377.1392c-37.71392 0-68.56704-30.85312-68.56704-68.56704V675.28704c-24.00256 3.4304-48.00512 10.2912-68.57728 20.5824V990.72h480.01024V695.8592c-20.5824-6.8608-44.57472-13.71136-68.57728-17.14176z" fill="#FAAD14" p-id="11545"></path></svg>