<?xml version="1.0" standalone="no"?><!DOCTYPE svg PUBLIC "-//W3C//DTD SVG 1.1//EN"
        "http://www.w3.org/Graphics/SVG/1.1/DTD/svg11.dtd">
<svg t="1699701673950" class="icon" viewBox="0 0 1024 1024" version="1.1" xmlns="http://www.w3.org/2000/svg" p-id="5251"
     width="16" height="16">
    <path d="M970.860307 15.009378H53.055635a38.070456 38.070456 0 0 0-37.972388 37.953285v917.497734c0 20.90742 16.811522 38.534046 37.972388 38.534046h917.804672c21.191433 0 38.023333-17.626626 38.023333-38.534046V52.967757a38.097202 38.097202 0 0 0-38.023333-37.953285zM268.542414 932.225646H91.603691v-75.142409h56.733793c20.887043 0 37.972389-17.377001 37.972389-38.534047a38.080645 38.080645 0 0 0-37.972389-37.983851H91.603691v-128.30248h56.733793a38.150693 38.150693 0 0 0 37.972389-38.258949c0-20.606851-17.082799-38.258949-37.972389-38.258948H91.603691V447.427198h56.733793a37.983851 37.983851 0 0 0 0-75.967702H91.603691V242.860267h56.733793a38.108664 38.108664 0 0 0 0-76.217328H91.603691v-75.142409h176.938723v840.725116z m663.819507 0H314.681127V91.496709h617.680794v840.728937zM467.197294 733.368264h312.37209c12.750011 0 23.069993-9.764692 23.069993-22.533807v-33.354315a124.116156 124.116156 0 0 0-9.218318-47.198348 130.364439 130.364439 0 0 0-26.872963-39.608965 122.130614 122.130614 0 0 0-39.927365-26.866595l-5.410254-1.877287 3.808065-3.805517a143.106808 143.106808 0 0 0 0-202.664173 143.57422 143.57422 0 0 0-245.06869 101.481735 142.276421 142.276421 0 0 0 42.079749 101.182438l3.507495 3.504947a121.756175 121.756175 0 0 0-45.312146 29.044452 129.143056 129.143056 0 0 0-26.601687 39.608965 124.140355 124.140355 0 0 0-9.217044 47.198348v33.351768a22.514704 22.514704 0 0 0 22.797443 22.533807z m87.391895-345.358334a97.026681 97.026681 0 0 1 137.86467 0 97.830323 97.830323 0 0 1-67.830671 166.586901h-2.203328a97.463526 97.463526 0 0 1-67.830671-166.586901z m-64.046804 289.470212a75.333449 75.333449 0 0 1 5.434451-29.570448 80.820119 80.820119 0 0 1 16.532604-25.238935 78.93137 78.93137 0 0 1 54.553389-22.234511h112.916117a70.004706 70.004706 0 0 1 29.281341 5.959175c9.218318 3.27952 17.934837 9.489595 24.972752 16.275336a86.910475 86.910475 0 0 1 16.829352 25.241482 80.834129 80.834129 0 0 1 5.961723 29.570448v10.316162H490.542385v-10.316162z"
          fill="#3B3F51" p-id="5252"></path>
</svg>