<?xml version="1.0" standalone="no"?><!DOCTYPE svg PUBLIC "-//W3C//DTD SVG 1.1//EN"
        "http://www.w3.org/Graphics/SVG/1.1/DTD/svg11.dtd">
<svg t="1698328334260" class="icon" viewBox="0 0 1024 1024" version="1.1" xmlns="http://www.w3.org/2000/svg" p-id="4724"
     width="200" height="200">
    <path d="M332.799002 686.081014m-332.799002 0a332.799002 332.799002 0 1 0 665.598003 0 332.799002 332.799002 0 1 0-665.598003 0Z"
          fill="#F4EFC9" p-id="4725"></path>
    <path d="M883.19735 1024h-639.99808A141.055577 141.055577 0 0 1 102.399693 883.200422v-742.397772A141.055577 141.055577 0 0 1 243.19927 0.003072h516.350451a89.087733 89.087733 0 0 1 63.231811 25.599923l189.695431 189.695431A38.399885 38.399885 0 0 1 1023.996928 243.202342v639.99808a141.055577 141.055577 0 0 1-140.799578 140.799578zM243.19927 76.802842A63.999808 63.999808 0 0 0 179.199462 140.80265v742.397772A63.999808 63.999808 0 0 0 243.19927 947.20023h639.99808a63.999808 63.999808 0 0 0 63.999808-63.999808V259.074295l-179.199462-179.199463a12.799962 12.799962 0 0 0-8.447975-3.07199z"
          fill="#434260" p-id="4726"></path>
    <path d="M292.095124 512.001536c0-73.727779 44.799866-118.015646 102.399693-118.015646a87.039739 87.039739 0 0 1 64.255807 28.671914l-19.455942 22.783932a60.15982 60.15982 0 0 0-44.287867-20.22394c-38.911883 0-66.047802 32.511902-66.047802 85.759743s25.599923 86.52774 65.023805 86.52774a65.791803 65.791803 0 0 0 51.199846-24.063927l18.943944 22.527932a89.087733 89.087733 0 0 1-70.399789 32.511903c-58.111826 0.767998-101.631695-41.727875-101.631695-116.479651zM478.206565 595.969284l20.991937-25.599923a87.551737 87.551737 0 0 0 60.15982 25.599923c27.391918 0 42.751872-12.799962 42.751872-31.999904s-15.359954-27.135919-36.351891-36.351891l-31.231907-13.567959a65.023805 65.023805 0 0 1-46.079861-59.135823A67.071799 67.071799 0 0 1 563.19831 394.753888a96.76771 96.76771 0 0 1 68.351795 28.671914l-18.687944 22.783931a72.191783 72.191783 0 0 0-49.663851-20.223939c-23.039931 0-38.143886 11.007967-38.143885 29.183912s18.175945 25.599923 36.60789 34.047898l30.975907 13.31196A63.23181 63.23181 0 0 1 638.206085 563.201382c0 36.351891-29.95191 65.791803-79.615761 65.791803a112.639662 112.639662 0 0 1-80.383759-33.023901zM650.750048 399.105875h37.887886l33.535899 116.991649c7.679977 25.599923 12.543962 47.871856 20.479939 73.983778h1.535995c7.679977-25.599923 13.31196-48.127856 20.479939-73.983778l33.535899-116.991649h36.351891l-70.655788 226.047322h-42.239873z"
          fill="#434260" p-id="4727"></path>
</svg>