<?xml version="1.0" standalone="no"?><!DOCTYPE svg PUBLIC "-//W3C//DTD SVG 1.1//EN" "http://www.w3.org/Graphics/SVG/1.1/DTD/svg11.dtd"><svg t="1702563339699" class="icon" viewBox="0 0 1024 1024" version="1.1" xmlns="http://www.w3.org/2000/svg" p-id="28057" xmlns:xlink="http://www.w3.org/1999/xlink" width="32" height="32"><path d="M512.4096 509.696m-432.3328 0a432.3328 432.3328 0 1 0 864.6656 0 432.3328 432.3328 0 1 0-864.6656 0Z" fill="#B688FF" p-id="28058"></path><path d="M287.4368 415.5904c-85.0432 0-160.4096 41.3696-207.104 105.0624 4.5568 182.7328 122.368 337.3056 285.952 396.032 103.2192-33.28 177.92-130.048 177.92-244.3776 0-141.7728-114.944-256.7168-256.768-256.7168z" fill="#C3A4FF" p-id="28059"></path><path d="M639.8976 358.7584c21.504 0 36.4032-21.7088 28.3648-41.6768-16.5888-41.216-56.9856-70.4-104.0384-70.4H460.544c-61.9008 0-112.0768 50.176-112.0768 112.0768v64.0512h61.44V358.7584c0-27.9552 22.6816-50.6368 50.6368-50.6368h103.68c20.9408 0 38.9632 12.8 46.6432 30.976 4.9664 11.6736 15.8208 19.712 28.5184 19.712h0.512z" fill="#D7C7FF" p-id="28060"></path><path d="M670.0032 395.2128H354.7648c-48.9472 0-88.6272 39.68-88.6272 88.6272v186.0608c0 48.9472 39.68 88.6272 88.6272 88.6272h315.2384c48.9472 0 88.6272-39.68 88.6272-88.6272V483.84c0-48.9472-39.68-88.6272-88.6272-88.6272z m-130.1504 188.2112v64.512a27.4432 27.4432 0 0 1-54.8864 0v-64.512a55.31648 55.31648 0 0 1-27.9552-48.0768c0-30.6176 24.7808-55.3984 55.3984-55.3984s55.3984 24.7808 55.3984 55.3984c0 20.6336-11.264 38.5536-27.9552 48.0768z" fill="#FFFFFF" p-id="28061"></path></svg>