<?xml version="1.0" standalone="no"?><!DOCTYPE svg PUBLIC "-//W3C//DTD SVG 1.1//EN" "http://www.w3.org/Graphics/SVG/1.1/DTD/svg11.dtd"><svg t="1706096167224" class="icon" viewBox="0 0 1024 1024" version="1.1" xmlns="http://www.w3.org/2000/svg" p-id="7281" width="16" height="16" xmlns:xlink="http://www.w3.org/1999/xlink"><path d="M907.1 299.9c-14.6-14.6-38.4-14.6-53 0L513 640.5 172 299.9c-14.6-14.6-38.4-14.6-53 0-14.6 14.6-14.6 38.4 0 53l364.7 364.2c0.8 1 1.7 2 2.7 3 7.3 7.3 17 11 26.7 10.9 9.7 0 19.3-3.6 26.7-10.9 1-1 1.8-1.9 2.7-3l364.7-364.2c14.4-14.6 14.4-38.4-0.1-53z" fill="" p-id="7282"></path></svg>