<?xml version="1.0" standalone="no"?><!DOCTYPE svg PUBLIC "-//W3C//DTD SVG 1.1//EN" "http://www.w3.org/Graphics/SVG/1.1/DTD/svg11.dtd"><svg t="1702562737910" class="icon" viewBox="0 0 1024 1024" version="1.1" xmlns="http://www.w3.org/2000/svg" p-id="25002" xmlns:xlink="http://www.w3.org/1999/xlink" width="32" height="32"><path d="M0.853333 129.706667c0-28.16 22.186667-51.2 49.493334-51.2h336.213333c19.626667 0 37.546667 11.946667 45.226667 30.72l23.893333 58.88h438.613333c12.8 0 25.6 5.12 34.133334 15.36 9.386667 9.386667 14.506667 22.186667 14.506666 35.84v674.133333c0 13.653333-5.12 26.453333-14.506666 35.84s-21.333333 15.36-34.133334 15.36H50.346667c-12.8 0-25.6-5.12-34.133334-15.36-9.386667-9.386667-14.506667-23.04-14.506666-35.84-0.853333 0.853333-0.853333-763.733333-0.853334-763.733333z" fill="#FFA000" p-id="25003"></path><path d="M95.573333 213.333333h750.933334c34.133333 0 52.053333 17.92 52.053333 52.906667v477.866667c0 35.84-17.066667 52.906667-52.053333 52.906666h-750.933334c-34.133333 0-52.053333-17.92-52.053333-52.906666v-477.866667c0-35.84 17.92-52.906667 52.053333-52.906667z" fill="#FFFFFF" p-id="25004"></path><path d="M131.413333 293.546667h750.933334c34.133333 0 49.493333 17.066667 44.373333 51.2l-66.56 459.946666c-5.12 34.133333-24.746667 51.2-59.733333 51.2h-733.866667c-34.133333 0-49.493333-17.066667-44.373333-51.2l49.493333-459.946666c5.12-34.986667 25.6-51.2 59.733333-51.2z" fill="#EFC99A" opacity=".9" p-id="25005"></path><path d="M139.946667 315.733333h750.933333c34.133333 0 49.493333 17.066667 44.373333 51.2l-66.56 459.946667c-5.12 34.133333-24.746667 51.2-59.733333 51.2h-742.4c-34.133333 0-49.493333-17.066667-44.373333-51.2L80.213333 366.933333c5.12-34.986667 25.6-51.2 59.733334-51.2z" fill="#FFFFFF" p-id="25006"></path><path d="M131.413333 448.853333h843.946667c32.426667 0 49.493333 11.093333 49.493333 34.133334l-81.92 427.52c0 22.186667-16.213333 34.133333-49.493333 34.133333H49.493333c-32.426667 0-49.493333-11.093333-49.493333-34.133333l81.92-427.52c0-23.04 16.213333-34.133333 49.493333-34.133334z" fill="#FFCA28" p-id="25007"></path></svg>