<?xml version="1.0" standalone="no"?><!DOCTYPE svg PUBLIC "-//W3C//DTD SVG 1.1//EN" "http://www.w3.org/Graphics/SVG/1.1/DTD/svg11.dtd"><svg t="1702562636844" class="icon" viewBox="0 0 1024 1024" version="1.1" xmlns="http://www.w3.org/2000/svg" p-id="22977" width="32" height="32" xmlns:xlink="http://www.w3.org/1999/xlink"><path d="M508.534154 342.646154m-306.727385 0a306.727385 306.727385 0 1 0 613.454769 0 306.727385 306.727385 0 1 0-613.454769 0Z" fill="#FFDC64" p-id="22978"></path><path d="M508.534154 667.490462a325.001846 325.001846 0 1 1 325.001846-324.844308 325.316923 325.316923 0 0 1-325.001846 324.844308z m0-613.45477A288.610462 288.610462 0 1 0 797.144615 342.646154 288.925538 288.925538 0 0 0 508.534154 54.035692z" fill="" p-id="22979"></path><path d="M508.534154 479.547077m-24.260923 0a24.260923 24.260923 0 1 0 48.521846 0 24.260923 24.260923 0 1 0-48.521846 0Z" fill="" p-id="22980"></path><path d="M508.534154 342.646154m-223.547077 0a223.547077 223.547077 0 1 0 447.094154 0 223.547077 223.547077 0 1 0-447.094154 0Z" fill="#DDDDDD" p-id="22981"></path><path d="M508.534154 584.310154a241.664 241.664 0 1 1 241.821538-241.664 241.979077 241.979077 0 0 1-241.821538 241.664z m0-447.094154a204.8 204.8 0 1 0 204.8 204.8 204.8 204.8 0 0 0-204.8-204.8z" fill="" p-id="22982"></path><path d="M480.964923 301.056h46.788923v192.354462h-46.788923z" fill="" p-id="22983"></path><path d="M527.753846 498.609231h-47.261538a5.198769 5.198769 0 0 1-5.19877-5.198769V301.056a5.198769 5.198769 0 0 1 5.19877-5.198769h47.261538a5.198769 5.198769 0 0 1 5.198769 5.198769v192.354462a5.198769 5.198769 0 0 1-5.198769 5.198769zM486.163692 488.369231h36.391385V306.254769h-36.391385z" fill="" p-id="22984"></path><path d="M504.438154 222.916923m-48.679385 0a48.679385 48.679385 0 1 0 97.358769 0 48.679385 48.679385 0 1 0-97.358769 0Z" fill="" p-id="22985"></path><path d="M899.544615 398.729846a48.836923 48.836923 0 0 0-48.836923 48.836923v129.024a48.836923 48.836923 0 0 0-81.762461-22.528L597.700923 724.676923a145.723077 145.723077 0 0 0-43.008 103.660308v160.216615h212.676923l150.606769-276.795077a250.171077 250.171077 0 0 0 30.247385-119.099077v-145.092923a48.836923 48.836923 0 0 0-48.679385-48.836923zM426.299077 724.676923L255.054769 554.220308A48.836923 48.836923 0 0 0 173.292308 576.590769v-129.024a48.836923 48.836923 0 1 0-97.673846 0v145.092923a250.013538 250.013538 0 0 0 30.247384 119.099077l150.606769 276.795077h212.676923V829.124923A145.723077 145.723077 0 0 0 426.299077 724.676923z" fill="#FFD29F" p-id="22986"></path><path d="M899.544615 381.085538a66.638769 66.638769 0 0 0-66.48123 66.481231v81.447385a66.481231 66.481231 0 0 0-76.563693 12.603077L585.255385 712.861538a163.367385 163.367385 0 0 0-48.20677 116.263385v159.428923a17.801846 17.801846 0 0 0 17.801847 17.801846h60.494769a17.801846 17.801846 0 1 0 0-35.446154h-42.850462v-141.784615a128.078769 128.078769 0 0 1 37.809231-91.214769L781.390769 567.138462a31.507692 31.507692 0 0 1 43.953231 0 26.308923 26.308923 0 0 1 7.561846 12.445538 48.521846 48.521846 0 0 1 0 17.329231 31.507692 31.507692 0 0 1-8.034461 14.020923L654.257231 781.863385a66.323692 66.323692 0 0 0-19.534769 47.261538 17.801846 17.801846 0 0 0 35.446153 0 31.507692 31.507692 0 0 1 9.137231-22.212923L850.707692 635.667692a66.481231 66.481231 0 0 0 17.959385-60.967384v-127.133539a31.507692 31.507692 0 1 1 62.070154 0v145.092923a232.369231 232.369231 0 0 1-28.199385 110.276923L756.184615 970.909538h-38.281846a17.801846 17.801846 0 1 0 0 35.446154h49.624616a17.644308 17.644308 0 0 0 15.753846-9.294769l150.606769-276.795077a267.815385 267.815385 0 0 0 32.452923-127.606154v-145.092923a66.638769 66.638769 0 0 0-66.796308-66.481231zM438.744615 712.861538L267.815385 541.617231a66.481231 66.481231 0 0 0-76.563693-12.603077v-81.447385a66.481231 66.481231 0 1 0-133.12 0v145.092923a267.815385 267.815385 0 0 0 32.452923 127.606154l150.449231 276.795077a17.644308 17.644308 0 0 0 15.753846 9.294769h49.624616a17.801846 17.801846 0 1 0 0-35.446154H267.815385l-145.565539-267.815384a232.369231 232.369231 0 0 1-28.199384-110.276923v-145.250462a31.507692 31.507692 0 1 1 62.070153 0v127.133539A66.481231 66.481231 0 0 0 173.292308 635.667692l171.401846 171.244308a31.507692 31.507692 0 0 1 9.137231 22.212923 17.801846 17.801846 0 0 0 35.446153 0 66.481231 66.481231 0 0 0-19.534769-47.261538L198.656 610.619077A31.507692 31.507692 0 1 1 242.609231 567.138462l171.086769 170.771692a128.078769 128.078769 0 0 1 37.809231 91.214769v141.784615h-42.850462a17.801846 17.801846 0 0 0 0 35.446154h60.494769a17.801846 17.801846 0 0 0 17.801847-17.644307V829.124923a163.367385 163.367385 0 0 0-48.20677-116.263385zM537.363692 327.837538h-65.851077a18.274462 18.274462 0 0 1 0-36.391384h65.851077a18.274462 18.274462 0 0 1 0 36.391384zM537.363692 501.129846h-65.851077a18.274462 18.274462 0 0 1 0-36.391384h65.851077a18.274462 18.274462 0 0 1 0 36.391384z" fill="" p-id="22987"></path></svg>