<?xml version="1.0" standalone="no"?><!DOCTYPE svg PUBLIC "-//W3C//DTD SVG 1.1//EN" "http://www.w3.org/Graphics/SVG/1.1/DTD/svg11.dtd"><svg t="1702562909327" class="icon" viewBox="0 0 1024 1024" version="1.1" xmlns="http://www.w3.org/2000/svg" p-id="27021" xmlns:xlink="http://www.w3.org/1999/xlink" width="32" height="32"><path d="M942.08 1024H81.92A81.92 81.92 0 0 1 0 942.08V81.92A81.92 81.92 0 0 1 81.92 0h860.16A81.92 81.92 0 0 1 1024 81.92v860.16A81.92 81.92 0 0 1 942.08 1024zM81.92 68.498286a13.421714 13.421714 0 0 0-13.458286 13.421714v860.16c0 7.424 6.034286 13.421714 13.458286 13.421714h860.16a13.458286 13.458286 0 0 0 13.421714-13.421714V81.92a13.458286 13.458286 0 0 0-13.421714-13.421714H81.92z" fill="#C50935" p-id="27022"></path><path d="M452.388571 607.085714c-2.194286-22.820571-1.097143-42.24 3.291429-58.258285 4.388571-16.018286 10.386286-29.842286 18.066286-41.472 7.68-11.629714 16.457143-21.723429 26.331428-30.281143 9.874286-8.557714 19.090286-16.822857 27.648-24.685715a137.874286 137.874286 0 0 0 21.394286-24.685714c5.705143-8.557714 8.557714-18.761143 8.557714-30.610286 0-15.36-4.278857-27.648-12.8-36.864-8.594286-9.216-23.844571-13.824-45.787428-13.824-7.021714 0-14.482286 0.731429-22.381715 2.304a159.195429 159.195429 0 0 0-23.698285 6.582858 191.707429 191.707429 0 0 0-42.130286 21.394285l-32.914286-63.195428c16.676571-11.410286 35.876571-20.845714 57.6-28.306286 21.723429-7.460571 47.945143-11.190857 78.665143-11.190857 41.252571 0 73.508571 9.984 96.768 29.952 23.259429 19.968 34.889143 46.811429 34.889143 80.64 0 22.381714-2.925714 40.923429-8.886857 55.588571a135.497143 135.497143 0 0 1-22.052572 37.558857c-8.777143 10.313143-18.432 19.382857-28.964571 27.318858a249.490286 249.490286 0 0 0-28.964571 25.344c-8.777143 8.996571-16.237714 19.382857-22.381715 31.268571-6.144 11.849143-9.216 26.989714-9.216 45.421714H452.388571z m-13.165714 93.476572c0-15.36 4.790857-27.538286 14.445714-36.571429 9.654857-8.96 22.381714-13.458286 38.180572-13.458286 16.676571 0 29.842286 4.498286 39.497143 13.494858 9.654857 8.996571 14.482286 21.174857 14.482285 36.534857 0 15.36-4.827429 27.648-14.482285 36.864s-22.820571 13.824-39.497143 13.824c-15.798857 0-28.525714-4.608-38.180572-13.824s-14.482286-21.504-14.482285-36.864z" fill="#5584FF" p-id="27023"></path></svg>