<?xml version="1.0" standalone="no"?><!DOCTYPE svg PUBLIC "-//W3C//DTD SVG 1.1//EN" "http://www.w3.org/Graphics/SVG/1.1/DTD/svg11.dtd"><svg t="1702562226298" class="icon" viewBox="0 0 1024 1024" version="1.1" xmlns="http://www.w3.org/2000/svg" p-id="12795" xmlns:xlink="http://www.w3.org/1999/xlink" width="16" height="16"><path d="M384 128V16h-128v112" fill="#D73636" p-id="12796"></path><path d="M336 128V16h-80v112" fill="#F73B2F" p-id="12797"></path><path d="M48 416v528h928V416" fill="#FFE183" p-id="12798"></path><path d="M976 416v528h-64V480H48v-64h928z" fill="#D9BF6F" p-id="12799"></path><path d="M577.408 352H16v64h488.288" fill="#F73B2F" p-id="12800"></path><path d="M833.232 416H1008v-64H768.784" fill="#F73B2F" p-id="12801"></path><path d="M368 656a96.048 96.048 0 0 0-28.112-67.888A96 96 0 0 0 176 656v96h192v-96z" fill="#FFFFFF" p-id="12802"></path><path d="M320 592h32v160h-32z" fill="#D9D9D9" p-id="12803"></path><path d="M256 352v64c0 12.736-5.056 24.944-14.064 33.936a47.936 47.936 0 0 1-67.872 0A47.936 47.936 0 0 1 160 416v-64H32L128 128h18.736a48.032 48.032 0 0 1 90.528 0h201.408A80.048 80.048 0 0 1 512 80a80.048 80.048 0 0 1 72.32 45.792A63.712 63.712 0 0 1 624 112c16.208 0 31.024 6.048 42.32 16h49.824A71.92 71.92 0 0 1 776 96c24.944 0 46.944 12.704 59.856 32H896l96 224H400v56a40 40 0 1 1-80 0V352h-64z" fill="#CBE9EA" p-id="12804"></path><path d="M896 128l96 224H416c324.768 19.904 531.216-28.112 480-224z" fill="#ADC6C7" p-id="12805"></path><path d="M496 528l176-176 176 176v352H496V528" fill="#FFD140" p-id="12806"></path><path d="M464 880h416v64H464z" fill="#5AB947" p-id="12807"></path><path d="M768 656a96.048 96.048 0 0 0-28.112-67.888 96.048 96.048 0 0 0-135.776 0A96.048 96.048 0 0 0 576 656v224h192V656z" fill="#D73636" p-id="12808"></path><path d="M648 563.44a92.4 92.4 0 0 1 43.888 24.672A96.048 96.048 0 0 1 720 656v224h-144V656c0-25.456 10.112-49.872 28.112-67.888a92.4 92.4 0 0 1 43.888-24.672z" fill="#F73B2F" p-id="12809"></path><path d="M496 528v64l176-176 144 144v320h32V512L672 352 496 528z" fill="#D9B236" p-id="12810"></path><path d="M640 720m-16 0a16 16 0 1 0 32 0 16 16 0 1 0-32 0Z" fill="#F73B2F" p-id="12811"></path><path d="M672.064 261.584v-0.016l242.624 234.688a32 32 0 0 1 0.768 45.232l-0.016 0.016a32 32 0 0 1-45.248 0.784L672.064 350.96 474.496 541.744a31.936 31.936 0 0 1-45.248-0.8l-0.016-0.016a32 32 0 0 1 0.768-45.232l242.064-234.112z" fill="#F73B2F" p-id="12812"></path><path d="M40.32 960.784A104.064 104.064 0 0 1 136 816a103.68 103.68 0 0 1 71.6 28.592 79.584 79.584 0 0 0 71.312 20.864A108.944 108.944 0 0 1 296 864c48.576 0 88 39.424 88 88" fill="#CBE9EA" p-id="12813"></path><path d="M16 944h992v64H16z" fill="#5AB947" p-id="12814"></path></svg>