<?xml version="1.0" standalone="no"?><!DOCTYPE svg PUBLIC "-//W3C//DTD SVG 1.1//EN"
        "http://www.w3.org/Graphics/SVG/1.1/DTD/svg11.dtd">
<svg t="1698328353112" class="icon" viewBox="0 0 1024 1024" version="1.1" xmlns="http://www.w3.org/2000/svg" p-id="5767"
     width="16" height="16">
    <path d="M112 16h736v992H112z" fill="#AED796" p-id="5768"></path>
    <path d="M392.176 846.08c8.032 4.544 18.208 2.032 22.704-5.616l159.344-256.496c4.496-7.648 1.648-17.504-6.384-22.048s-18.208-2.032-22.704 5.616l-159.344 256.496c-4.512 7.632-1.648 17.504 6.384 22.048z m204.416-50.672a15.84 15.84 0 0 0 22.464 0l79.344-79.344c0.336-0.288 0.752-0.384 1.056-0.704a15.776 15.776 0 0 0 4.592-11.52 15.808 15.808 0 0 0-4.656-11.264c-0.224-0.224-0.512-0.304-0.752-0.496l-79.552-79.552a15.872 15.872 0 1 0-22.464 22.464l68.944 68.944-68.992 68.992a15.888 15.888 0 0 0 0.016 22.48zM261.6 716.064l79.328 79.344a15.84 15.84 0 0 0 22.464 0 15.84 15.84 0 0 0 0-22.464L294.4 703.952l68.944-68.944a15.872 15.872 0 1 0-22.464-22.464l-79.552 79.552c-0.224 0.208-0.528 0.288-0.736 0.496a15.744 15.744 0 0 0-4.656 11.264 15.808 15.808 0 0 0 4.592 11.52c0.32 0.288 0.736 0.4 1.072 0.688zM896 128h-32V32a32 32 0 0 0-32-32H128a32 32 0 0 0-32 32v960a32 32 0 0 0 32 32h704a32 32 0 0 0 32-32V416h32a32 32 0 0 0 32-32V160a32 32 0 0 0-32-32z m-64 0H352a32 32 0 0 0-32 32v224a32 32 0 0 0 32 32h480v576H128V32h704v96z"
          fill="#2B3139" p-id="5769"></path>
    <path d="M352 160h544v224H352z" fill="#FFFFFF" p-id="5770"></path>
    <path d="M387.696 213.824h35.184v39.664h32.944v-39.664h35.184V328h-35.184v-45.264H422.88V328h-35.184v-114.176zM535.856 243.088h-31.984v-29.264h99.136v29.264h-31.984V328h-35.168v-84.912zM615.872 213.824h50.048l16.32 67.168h0.32l16.32-67.168h50.064V328H715.68v-73.248h-0.336l-19.84 73.248H669.28l-19.824-73.248h-0.336V328h-33.248v-114.176zM767.056 213.824h35.184v84.912h50.528V328h-85.712v-114.176z"
          fill="#2B3139" p-id="5771"></path>
</svg>