<?xml version="1.0" standalone="no"?><!DOCTYPE svg PUBLIC "-//W3C//DTD SVG 1.1//EN"
        "http://www.w3.org/Graphics/SVG/1.1/DTD/svg11.dtd">
<svg t="1700658396719" class="icon" viewBox="0 0 2461 1024" version="1.1" xmlns="http://www.w3.org/2000/svg" p-id="7680"
     width="307.625" height="128">
    <path d="M359.298246 215.578947h1760.561403c79.045614 0 143.719298 64.673684 143.719298 143.719299v287.438596c0 79.045614-64.673684 143.719298-143.719298 143.719298H359.298246c-79.045614 0-143.719298-64.673684-143.719299-143.719298V359.298246c0-79.045614 64.673684-143.719298 143.719299-143.719299z"
          fill="#13227a" opacity=".597" p-id="7681"></path>
    <path d="M1045.557895 388.042105h30.540351v176.056141h98.807017V592.842105h-131.143859V388.042105zM1196.463158 519.185965c0-16.168421 1.796491-26.947368 3.592982-35.929825 1.796491-7.185965 7.185965-14.37193 12.575439-19.761403 3.592982-5.389474 8.982456-8.982456 16.168421-12.575439 7.185965-3.592982 16.168421-5.389474 26.947368-5.389473s21.557895 1.796491 28.74386 5.389473c7.185965 3.592982 12.575439 8.982456 16.168421 12.575439 5.389474 5.389474 10.778947 12.575439 12.575439 19.761403 1.796491 8.982456 3.592982 19.761404 3.592982 35.929825s-1.796491 26.947368-3.592982 35.929824c-1.796491 7.185965-7.185965 14.37193-12.575439 21.557895l-7.185965 7.185965c-1.796491 1.796491-5.389474 3.592982-8.982456 5.389474-7.185965 3.592982-16.168421 5.389474-28.74386 7.185965-10.778947 0-19.761404-1.796491-26.947368-7.185965-7.185965-3.592982-12.575439-7.185965-16.168421-12.575439-5.389474-5.389474-8.982456-12.575439-12.575439-21.557895-3.592982-8.982456-3.592982-19.761404-3.592982-35.929824z m89.824561 1.796491c0-10.778947 0-17.964912-1.796491-23.354386-1.796491-5.389474-3.592982-8.982456-5.389474-12.575438-1.796491-3.592982-5.389474-5.389474-8.982456-7.185965-3.592982-1.796491-8.982456-3.592982-14.37193-3.592983-5.389474 0-8.982456 1.796491-14.371929 3.592983-3.592982 1.796491-7.185965 3.592982-8.982457 7.185965-1.796491 3.592982-3.592982 7.185965-5.389473 12.575438-1.796491 5.389474-1.796491 12.575439-1.796491 21.557895 0 10.778947 0 17.964912 1.796491 21.557895 1.796491 5.389474 3.592982 8.982456 5.389473 12.575438 1.796491 3.592982 5.389474 5.389474 8.982457 7.185965 3.592982 1.796491 8.982456 3.592982 14.371929 3.592983 5.389474 0 10.778947-1.796491 14.37193-3.592983 3.592982-1.796491 7.185965-5.389474 8.982456-7.185965 3.592982-3.592982 5.389474-7.185965 5.389474-12.575438 1.796491-3.592982 1.796491-10.778947 1.796491-19.761404zM1422.821053 580.266667c-3.592982 5.389474-7.185965 8.982456-12.575439 10.778947-5.389474 1.796491-12.575439 3.592982-23.354386 3.592982-16.168421 0-28.74386-3.592982-37.726316-12.575438-8.982456-8.982456-14.37193-17.964912-14.37193-32.336842 0-12.575439 3.592982-21.557895 12.575439-30.540351 7.185965-8.982456 19.761404-12.575439 35.929825-12.575439h41.319298v-16.168421c0-12.575439-8.982456-19.761404-30.540351-17.964912-7.185965 0-12.575439 0-17.964912 1.796491-3.592982 1.796491-7.185965 5.389474-10.778948 8.982456l-23.354386-17.964912c10.778947-14.37193 26.947368-21.557895 48.505264-21.557895 17.964912 0 32.336842 3.592982 43.115789 10.778948 10.778947 7.185965 16.168421 19.761404 16.168421 37.726315V592.842105h-28.74386v-12.575438z m0-48.505263h-35.929825c-16.168421 0-25.150877 5.389474-25.150877 17.964912 0 5.389474 1.796491 8.982456 7.185965 12.575438 3.592982 3.592982 10.778947 5.389474 21.557895 5.389474 12.575439 0 21.557895-1.796491 25.150877-3.592982 5.389474-3.592982 7.185965-10.778947 7.185965-21.557895v-10.778947zM1577.319298 576.673684c-8.982456 10.778947-21.557895 16.168421-37.726316 16.168421-8.982456 0-16.168421-1.796491-23.354386-5.389473-7.185965-3.592982-12.575439-7.185965-16.168421-14.37193-3.592982-5.389474-7.185965-10.778947-7.185964-17.964913-1.796491-5.389474-1.796491-17.964912-1.796492-35.929824s0-30.540351 1.796492-37.726316c1.796491-7.185965 3.592982-14.37193 7.185964-17.964912 8.982456-12.575439 21.557895-17.964912 39.522807-19.761404 7.185965 0 14.37193 1.796491 21.557895 5.389474 5.389474 3.592982 10.778947 7.185965 16.168421 12.575439v-73.656141h28.74386V592.842105h-28.74386v-16.168421z m-28.743859-102.4c-7.185965 0-12.575439 1.796491-16.168421 3.592983-3.592982 1.796491-7.185965 5.389474-8.982457 10.778947-1.796491 3.592982-3.592982 8.982456-3.592982 14.37193v32.336842c0 5.389474 1.796491 10.778947 3.592982 14.37193 1.796491 3.592982 5.389474 7.185965 8.982457 10.778947 3.592982 1.796491 8.982456 3.592982 16.168421 3.592983s12.575439-1.796491 16.168421-3.592983c3.592982-3.592982 7.185965-5.389474 8.982456-10.778947 1.796491-3.592982 3.592982-8.982456 3.592982-14.37193v-16.168421-16.168421c0-5.389474-1.796491-10.778947-3.592982-14.37193-1.796491-3.592982-3.592982-7.185965-8.982456-10.778947-3.592982-1.796491-8.982456-3.592982-16.168421-3.592983zM1640.196491 388.042105h28.74386v28.74386h-28.74386v-28.74386z m0 59.284211h28.74386V592.842105h-28.74386v-145.515789zM1708.463158 447.326316h28.74386v16.168421c8.982456-10.778947 21.557895-17.964912 37.726315-17.964912 12.575439 0 23.354386 3.592982 32.336842 12.575438 10.778947 8.982456 14.37193 21.557895 16.168421 37.726316V592.842105h-28.743859v-86.231579c0-10.778947-3.592982-17.964912-8.982456-23.354386-5.389474-5.389474-12.575439-8.982456-19.761404-8.982456s-16.168421 3.592982-21.557895 8.982456c-5.389474 5.389474-8.982456 12.575439-8.982456 23.354386V592.842105H1706.666667v-145.515789zM1943.803509 576.673684c-8.982456 10.778947-21.557895 16.168421-37.726316 16.168421-8.982456 0-17.964912-1.796491-23.354386-5.389473-7.185965-3.592982-10.778947-7.185965-14.37193-12.575439-3.592982-5.389474-7.185965-10.778947-8.982456-17.964912-1.796491-7.185965-1.796491-19.761404-1.796491-39.522807s0-32.336842 1.796491-39.522807c1.796491-7.185965 3.592982-12.575439 8.982456-17.964913 3.592982-5.389474 8.982456-8.982456 14.37193-12.575438 5.389474-3.592982 14.37193-5.389474 23.354386-5.389474 14.37193 0 26.947368 5.389474 37.726316 17.964912v-16.168421h28.743859v141.922807c0 21.557895-7.185965 37.726316-19.761403 48.505264-12.575439 10.778947-26.947368 16.168421-44.912281 16.168421-19.761404 0-35.929825-8.982456-50.301754-25.150878l23.354386-17.964912c3.592982 3.592982 7.185965 7.185965 12.575438 8.982456 5.389474 3.592982 10.778947 3.592982 16.168421 3.592983 10.778947 0 17.964912-3.592982 23.354386-8.982456 5.389474-5.389474 8.982456-12.575439 8.982457-23.354386v-10.778948zM1886.315789 520.982456c0 10.778947 0 17.964912 1.796492 23.354386 0 3.592982 1.796491 7.185965 5.389473 10.778947 1.796491 1.796491 5.389474 5.389474 8.982457 7.185965 3.592982 1.796491 8.982456 3.592982 14.371929 3.592983 5.389474 0 10.778947-1.796491 14.37193-3.592983 3.592982-1.796491 7.185965-5.389474 8.982456-7.185965l5.389474-10.778947V520.982456v-23.354386c0-3.592982-1.796491-7.185965-5.389474-10.778947-1.796491-1.796491-5.389474-5.389474-8.982456-7.185965-3.592982-1.796491-8.982456-3.592982-14.37193-3.592983-5.389474 0-10.778947 1.796491-14.371929 3.592983-3.592982 1.796491-7.185965 5.389474-8.982457 7.185965-1.796491 3.592982-3.592982 5.389474-5.389473 10.778947 0 3.592982-1.796491 10.778947-1.796492 23.354386z"
          fill="#13227a" p-id="7682"></path>
    <path d="M503.017544 718.596491c-10.778947 0-17.964912-7.185965-17.964912-17.964912s7.185965-17.964912 17.964912-17.964912c93.417544 0 170.666667-77.249123 170.666667-170.666667S596.435088 341.333333 503.017544 341.333333c-10.778947 0-17.964912-7.185965-17.964912-17.964912s7.185965-17.964912 17.964912-17.964912c113.178947 0 206.596491 93.417544 206.596491 206.596491S616.196491 718.596491 503.017544 718.596491z"
          fill="#13227a" p-id="7683"></path>
</svg>