<?xml version="1.0" standalone="no"?><!DOCTYPE svg PUBLIC "-//W3C//DTD SVG 1.1//EN" "http://www.w3.org/Graphics/SVG/1.1/DTD/svg11.dtd"><svg t="1704295160809" class="icon" viewBox="0 0 1024 1024" version="1.1" xmlns="http://www.w3.org/2000/svg" p-id="4268" xmlns:xlink="http://www.w3.org/1999/xlink" width="16" height="16"><path d="M922.344176 152.209186v-0.050575c0-0.765851-0.0867-1.517251-0.130051-2.283101-0.036125-0.67915-0.04335-1.365526-0.108375-2.037452-0.0867-0.794751-0.2312-1.553376-0.36125-2.333676-0.07225-0.455175-0.122825-0.917576-0.209525-1.379976l-0.04335-0.296226-0.050575-0.281775c-0.15895-0.794751-0.397375-1.553376-0.599676-2.333677-0.15895-0.6069-0.289-1.228251-0.469625-1.820701-0.2601-0.816426-0.585225-1.618401-0.888676-2.420377l-0.27455-0.758625-0.166175-0.455176-0.13005-0.325125c-0.354025-0.830876-0.758626-1.625626-1.163226-2.427602-0.223975-0.455175-0.41905-0.917576-0.6647-1.358301-0.4335-0.801976-0.924801-1.553376-1.401651-2.319226-0.1445-0.223975-0.267325-0.4624-0.411826-0.671926-0.0867-0.13005-0.151725-0.267325-0.238425-0.397375l-0.1156-0.1734c-0.50575-0.751401-1.062076-1.445001-1.611176-2.153052-0.30345-0.39015-0.578-0.801976-0.888676-1.184901-0.556325-0.6647-1.163226-1.293276-1.755676-1.929076-0.354025-0.382925-0.67915-0.780301-1.040401-1.141551l-0.065025-0.065025-0.01445-0.021675-0.07225-0.0578c-0.527425-0.527425-1.098201-1.004276-1.668976-1.510026-0.426275-0.3757-0.823651-0.780301-1.271601-1.148776-0.599675-0.4913-1.249926-0.932026-1.878501-1.401651-0.484075-0.36125-0.953701-0.744176-1.452226-1.083751a5.086404 5.086404 0 0 1-0.332351-0.2023l-0.53465-0.310675a26.70362 26.70362 0 0 0-1.141551-0.693601c-0.5202-0.3179-1.025951-0.657475-1.567826-0.9537-0.67915-0.368475-1.394426-0.671925-2.095252-1.004276-0.56355-0.267325-1.112651-0.570775-1.690651-0.809201-0.151725-0.07225-0.325125-0.122825-0.4913-0.180625-0.18785-0.079475-0.39015-0.137275-0.578001-0.223975l-1.018725-0.368475c-0.628575-0.223975-1.242701-0.484075-1.892952-0.693601-0.643025-0.18785-1.307726-0.325125-1.965201-0.4913-0.729726-0.195075-1.445001-0.41905-2.189177-0.563551-0.151725-0.036125-0.310675-0.036125-0.4624-0.065025l-0.426275-0.07225c-0.527425-0.10115-1.069301-0.166175-1.618402-0.238425-0.599675-0.093925-1.184901-0.21675-1.784576-0.281775a42.772031 42.772031 0 0 0-4.428928-0.223975h-0.151725l-343.079377 1.235476a43.350032 43.350032 0 0 0 0.151726 86.700063h0.151725l238.417949-0.867-156.76094 157.895265c-53.710689-42.179581-121.170564-67.467099-194.150342-67.467099l-4.219403 0.021675c-174.093728 2.290327-313.85423 145.786157-311.563903 319.858209 2.261427 171.817851 143.849855 311.592803 315.631581 311.592803l4.219403-0.0289c84.330262-1.105426 163.18397-34.983476 222.031638-95.39897 58.854893-60.415494 90.644916-140.136203 89.532265-224.452014-0.881451-67.82835-23.553517-130.613646-61.159669-181.831708l157.61349-158.747816V495.418613a43.350032 43.350032 0 0 0 86.700064 0V152.346462v-0.050575-0.086701zM577.198448 751.978551c-39.990404 41.06693-93.585494 64.085797-150.901461 64.844422l-2.890002 0.01445c-116.73441 0-212.957031-95.001595-214.495957-211.77213C207.357652 486.748607 302.352021 389.23271 420.668708 387.672109l2.890002-0.007225c116.741636 0 212.971481 94.99437 214.488732 211.779355 0.758626 57.301517-20.851365 111.474607-60.848994 152.534312z" fill="#1296db" p-id="4269"></path></svg>