<?xml version="1.0" standalone="no"?><!DOCTYPE svg PUBLIC "-//W3C//DTD SVG 1.1//EN"
        "http://www.w3.org/Graphics/SVG/1.1/DTD/svg11.dtd">
<svg t="1699701710499" class="icon" viewBox="0 0 1024 1024" version="1.1" xmlns="http://www.w3.org/2000/svg" p-id="7220"
     width="16" height="16">
    <path d="M956 807.2 657.6 807.2c-16.8 0-29.6-13.6-29.6-29.6 0-16.8 13.6-29.6 29.6-29.6l299.2 0c16.8 0 29.6 13.6 29.6 29.6C986.4 793.6 972.8 807.2 956 807.2zM956 627.2 657.6 627.2c-16.8 0-29.6-13.6-29.6-29.6 0-16.8 13.6-29.6 29.6-29.6l299.2 0c16.8 0 29.6 13.6 29.6 29.6C986.4 614.4 972.8 627.2 956 627.2zM508 564.8 508 568c-198.4 0-358.4 173.6-358.4 388.8 0 10.4 0.8 20 1.6 29.6l-1.6 0L31.2 986.4c-0.8-9.6-1.6-20-1.6-29.6 0-201.6 110.4-375.2 270.4-456.8-55.2-49.6-91.2-120-91.2-200 0-148.8 120.8-268.8 268.8-268.8 148.8 0 268.8 120.8 268.8 268.8C747.2 436.8 642.4 549.6 508 564.8zM478.4 149.6c-82.4 0-149.6 67.2-149.6 149.6S396 448 478.4 448s149.6-67.2 149.6-149.6S560.8 149.6 478.4 149.6zM657.6 926.4l299.2 0c16.8 0 29.6 13.6 29.6 29.6 0 16.8-13.6 29.6-29.6 29.6L657.6 985.6c-16.8 0-29.6-13.6-29.6-29.6C627.2 940 640.8 926.4 657.6 926.4z"
          p-id="7221"></path>
</svg>