<?xml version="1.0" standalone="no"?><!DOCTYPE svg PUBLIC "-//W3C//DTD SVG 1.1//EN" "http://www.w3.org/Graphics/SVG/1.1/DTD/svg11.dtd"><svg t="1702562413637" class="icon" viewBox="0 0 1024 1024" version="1.1" xmlns="http://www.w3.org/2000/svg" p-id="21315" xmlns:xlink="http://www.w3.org/1999/xlink" width="16" height="16"><path d="M781.28 425.28v377.12H290.4V445.12c0-10.88 10.88-19.68 24.32-19.68h466.56z" fill="#B3C8FE" p-id="21316"></path><path d="M561.44 361.76h171.2v185.76h48.64V337.44c0-13.44-10.88-24.32-24.32-24.32H533.92l-78.4-88.32c-4.64-5.28-11.2-8.16-18.24-8.16H204.96c-13.44 0-24.32 10.88-24.32 24.32v537.28c0 13.44 10.88 24.32 24.32 24.32h278.08v-48.64H229.28V265.12h197.12l78.4 88.32c4.64 5.28 11.2 8.16 18.24 8.16l38.4 0.16z" fill="#5186F5" p-id="21317"></path><path d="M804.32 695.2l-77.92-77.92-34.4 34.4L728.16 688h-152.32v-95.04h-48.64v119.36c0 13.44 10.88 24.32 24.32 24.32h176.64l-36.32 36.32 34.4 34.4 77.92-77.92c9.6-9.28 9.6-24.8 0.16-34.24z" fill="#5186F5" p-id="21318"></path></svg>