<?xml version="1.0" standalone="no"?><!DOCTYPE svg PUBLIC "-//W3C//DTD SVG 1.1//EN" "http://www.w3.org/Graphics/SVG/1.1/DTD/svg11.dtd"><svg t="1706191321830" class="icon" viewBox="0 0 1024 1024" version="1.1" xmlns="http://www.w3.org/2000/svg" p-id="9915" xmlns:xlink="http://www.w3.org/1999/xlink" width="16" height="16"><path d="M416 192C537.6 192 640 294.4 640 416S537.6 640 416 640 192 537.6 192 416 294.4 192 416 192M416 128C256 128 128 256 128 416S256 704 416 704 704 576 704 416 576 128 416 128L416 128z" fill="#272636" p-id="9916"></path><path d="M832 864c-6.4 0-19.2 0-25.6-6.4l-192-192c-12.8-12.8-12.8-32 0-44.8s32-12.8 44.8 0l192 192c12.8 12.8 12.8 32 0 44.8C851.2 864 838.4 864 832 864z" fill="#272636" p-id="9917"></path></svg>