<?xml version="1.0" standalone="no"?><!DOCTYPE svg PUBLIC "-//W3C//DTD SVG 1.1//EN" "http://www.w3.org/Graphics/SVG/1.1/DTD/svg11.dtd"><svg t="1704806879008" class="icon" viewBox="0 0 1024 1024" version="1.1" xmlns="http://www.w3.org/2000/svg" p-id="8579" xmlns:xlink="http://www.w3.org/1999/xlink" width="16" height="16"><path d="M512 128c211.2 0 384 172.8 384 384s-172.8 384-384 384-384-172.8-384-384 172.8-384 384-384m0-64C262.4 64 64 262.4 64 512s198.4 448 448 448 448-198.4 448-448-198.4-448-448-448z" fill="#1296db" p-id="8580"></path><path d="M448 704c-12.8 0-25.6-6.4-32-12.8L313.6 588.8c-12.8-12.8-12.8-32 0-44.8s32-12.8 44.8 0L448 633.6l275.2-275.2c12.8-12.8 32-12.8 44.8 0 12.8 12.8 12.8 32 0 44.8l-288 288c-6.4 12.8-19.2 12.8-32 12.8z" fill="#1296db" p-id="8581"></path></svg>