<?xml version="1.0" standalone="no"?><!DOCTYPE svg PUBLIC "-//W3C//DTD SVG 1.1//EN" "http://www.w3.org/Graphics/SVG/1.1/DTD/svg11.dtd"><svg t="1701352214618" class="icon" viewBox="0 0 1024 1024" version="1.1" xmlns="http://www.w3.org/2000/svg" p-id="4343" width="16" height="16" xmlns:xlink="http://www.w3.org/1999/xlink"><path d="M248.768295 434.912297c15.133675 0 29.9358-2.030239 44.261063-5.529947 0.769526 1.051959 1.198292 2.275833 2.153036 3.230578l64.396659 64.396659c4.89345 4.89345 11.30344 7.339152 17.714454 7.339152 6.40999 0 12.821003-2.445702 17.714454-7.339152 9.7869-9.785877 9.7869-25.640983 0-35.427884l-52.420907-52.432163c13.237489-7.829316 25.690102-17.200754 36.859489-28.381397 5.088902-5.088902 9.750061-10.496052 14.165628-16.050558l53.962006 53.949726c4.892427 4.89345 11.30344 7.339152 17.71343 7.339152 6.412037 0 12.821003-2.446725 17.71343-7.339152 9.7869-9.7869 9.7869-25.640983 0-35.427884l-63.135946-63.124689c8.967232-21.922289 13.70207-45.581128 13.713326-69.999261 0-49.348941-19.230993-95.738481-54.132898-130.652665-38.143739-38.143739-90.698698-57.545624-144.757918-53.459562-9.762341 0.733711-18.190291 7.094582-21.592784 16.269545-3.388167 9.175987-1.136893 19.500123 5.786797 26.423813l32.847106 32.859385c14.887059 14.900362 23.096021 34.69315 23.096021 55.758931 0 21.042245-8.208962 40.859593-23.109324 55.759955-29.77514 29.751604-81.742722 29.751604-111.518886 0l-32.847106-32.859385c-6.924713-6.948249-17.23657-9.17394-26.412556-5.773494-9.187243 3.400446-15.536858 11.81714-16.282848 21.578458-4.097318 53.925167 15.378246 106.675578 53.460586 144.770198C153.017534 415.681304 199.41833 434.912297 248.768295 434.912297zM195.957509 326.280158c34.449603 0 66.831105-13.431917 91.186815-37.777395 24.369014-24.369014 37.777395-56.739259 37.789675-91.187839 0-25.176402-7.16826-49.251727-20.515243-69.877487 14.569834 6.581905 27.965935 15.830547 39.599903 27.452235 25.433252 25.445532 39.452547 59.258639 39.452547 95.224782 0 35.967166-14.020318 69.77925-39.452547 95.224782-25.445532 25.445532-59.270918 39.464827-95.249341 39.464827-35.966143 0-69.791529-14.019295-95.224782-39.441291-11.54801-11.54801-20.747533-24.955368-27.329439-39.538505C146.815275 319.134411 170.841481 326.280158 195.957509 326.280158zM902.606721 640.237663c-34.900881-34.889625-81.303724-54.120618-130.651642-54.120618-25.032116 0-49.27731 4.991688-71.66418 14.410198L580.586586 480.860792l201.484897-207.429283c22.790052-14.288424 45.300742-36.236296 50.755987-49.789986 5.65172-14.044878 7.878434-27.916816 4.929266-30.828123-2.933819-2.935865-7.742335-7.756661-10.69048-10.692526s-16.832364-0.733711-30.851659 4.919033c-13.726629 5.553483-36.150338 28.699646-50.426483 51.844785L403.263995 591.499635l-84.361363-8.489348c-7.52437-0.685615-14.729469 1.834788-20.026102 7.020904-18.300808 17.909905-176.210257 178.583305-182.76658 185.263447-41.886993 41.86141-43.99091 92.043323-5.614881 134.24754 18.803251 20.674878 43.049468 31.930223 70.134337 32.56672 0.795109 0 1.602498 0.023536 2.397606 0.023536 31.500435 0 59.992349-14.387685 74.855872-29.287023 62.965054-65.399499 162.178683-167.230746 177.48325-179.684382 10.739599-8.734942 12.355399-24.51637 3.631714-35.232432-8.733918-10.741645-24.538883-12.380982-35.243689-3.620457-22.582321 18.349927-165.713182 166.911474-181.640943 183.450149-6.15314 6.166443-22.680559 15.292288-40.321334 14.241352-13.408381-0.319272-24.613584-5.603625-34.228569-16.173354-13.554714-14.901385-25.360598-35.795251 4.134157-65.253166 1.493004-1.517563 136.084375-138.483005 173.983543-176.528506l84.61719 8.512884c7.695263 0.735757 15.145955-1.981121 20.478404-7.484462l32.945343-33.912367 128.267339 128.255059c-3.083222 13.481036-4.844332 27.330462-4.844332 41.49609 0 49.349965 19.232017 95.738481 54.133921 130.652665 34.814923 34.840506 81.20344 54.022381 130.615826 54.022381 4.709255 0 9.41851-0.170892 14.129812-0.537236 9.761318-0.733711 18.190291-7.096628 21.591761-16.269545 3.40147-9.175987 1.150196-19.501146-5.774517-26.423813l-32.847106-32.859385c-30.742165-30.754444-30.742165-80.789001 0.01228-111.544469 29.777187-29.751604 81.743746-29.751604 111.51991 0l32.847106 32.859385c6.91141 6.92369 17.21201 9.149381 26.411533 5.773494 9.187243-3.400446 15.536858-11.81714 16.282848-21.578458C960.164624 731.082694 940.689061 678.332283 902.606721 640.237663zM498.635109 565.222155l47.038316-48.419779 110.321618 110.296035c-5.089925 4.110621-10.019191 8.465812-14.71719 13.162788-11.584849 11.574616-21.263279 24.51637-29.263487 38.314631L498.635109 565.222155zM824.764841 694.773743c-34.449603 0-66.830081 13.407358-91.186815 37.751812-43.674709 43.674709-49.423643 111.152543-17.22429 161.088862-14.59644-6.605442-28.015054-15.8285-39.649022-27.475771-25.433252-25.445532-39.45357-59.258639-39.45357-95.224782 0-35.966143 14.019295-69.77925 39.45357-95.225805 25.444509-25.444509 59.269895-39.463804 95.250364-39.463804 35.96512 0 69.789483 14.019295 95.223758 39.440267 11.54801 11.54801 20.747533 24.956392 27.329439 39.538505C873.907075 701.892885 849.878822 694.773743 824.764841 694.773743z" fill="#272636" p-id="4344"></path></svg>