<?xml version="1.0" standalone="no"?><!DOCTYPE svg PUBLIC "-//W3C//DTD SVG 1.1//EN" "http://www.w3.org/Graphics/SVG/1.1/DTD/svg11.dtd"><svg t="1702562083657" class="icon" viewBox="0 0 1024 1024" version="1.1" xmlns="http://www.w3.org/2000/svg" p-id="5392" xmlns:xlink="http://www.w3.org/1999/xlink" width="16" height="16"><path d="M0 0m0 0l1024 0q0 0 0 0l0 1024q0 0 0 0l-1024 0q0 0 0 0l0-1024q0 0 0 0Z" fill="#E8EFF8" p-id="5393"></path><path d="M141.637818 405.643636A23.272727 23.272727 0 0 0 160.814545 442.181818h350.487273a23.272727 23.272727 0 0 0 18.455273-37.469091L364.683636 190.161455a46.545455 46.545455 0 0 0-75.170909 1.88509l-147.874909 213.620364z" fill="#69CB91" p-id="5394"></path><path d="M337.454545 884.363636a174.545455 174.545455 0 1 0 0-349.090909 174.545455 174.545455 0 0 0 0 349.090909z" fill="#247ADE" p-id="5395"></path><path d="M907.636364 186.181818a23.272727 23.272727 0 0 0-23.272728-23.272727h-209.454545a23.272727 23.272727 0 0 0-23.272727 23.272727v674.909091a23.272727 23.272727 0 0 0 23.272727 23.272727h209.454545a23.272727 23.272727 0 0 0 23.272728-23.272727V186.181818z" fill="#A0BFF7" p-id="5396"></path></svg>