<?xml version="1.0" standalone="no"?><!DOCTYPE svg PUBLIC "-//W3C//DTD SVG 1.1//EN" "http://www.w3.org/Graphics/SVG/1.1/DTD/svg11.dtd"><svg t="1706094276810" class="icon" viewBox="0 0 1024 1024" version="1.1" xmlns="http://www.w3.org/2000/svg" p-id="5249" xmlns:xlink="http://www.w3.org/1999/xlink" width="32" height="32"><path d="M549.546667 320v176.64l124.586666 124.586667a21.333333 21.333333 0 0 1 0 30.293333l-22.613333 22.613333a21.333333 21.333333 0 0 1-30.293333 0l-140.373334-140.373333a22.613333 22.613333 0 0 1-6.4-14.933333V320a21.333333 21.333333 0 0 1 21.333334-21.333333h32.426666a21.333333 21.333333 0 0 1 21.333334 21.333333z m346.453333 85.333333v-213.333333a21.333333 21.333333 0 0 0-21.333333-21.333333h-12.373334a20.906667 20.906667 0 0 0-15.36 6.4l-63.573333 63.573333A384 384 0 1 0 896 534.613333a21.333333 21.333333 0 0 0-5.546667-15.786666 22.186667 22.186667 0 0 0-15.36-6.826667h-42.666666a21.333333 21.333333 0 0 0-21.333334 20.053333A298.666667 298.666667 0 1 1 512 213.333333a295.68 295.68 0 0 1 210.346667 88.32l-75.946667 75.946667a20.906667 20.906667 0 0 0-6.4 15.36v12.373333a21.333333 21.333333 0 0 0 21.333333 21.333334h213.333334a21.333333 21.333333 0 0 0 21.333333-21.333334z" p-id="5250" fill="#d81e06"></path></svg>