<?xml version="1.0" standalone="no"?><!DOCTYPE svg PUBLIC "-//W3C//DTD SVG 1.1//EN" "http://www.w3.org/Graphics/SVG/1.1/DTD/svg11.dtd"><svg t="1704295202245" class="icon" viewBox="0 0 1024 1024" version="1.1" xmlns="http://www.w3.org/2000/svg" p-id="5558" xmlns:xlink="http://www.w3.org/1999/xlink" width="16" height="16"><path d="M870.69952 153.30048c-66.10688-66.10944-154.00448-102.51776-247.49696-102.51904-93.49248 0-181.3888 36.40832-247.49696 102.51648-66.11072 66.10944-102.51648 154.00576-102.51648 247.49952-0.00128 76.19968 24.19072 148.6784 68.93056 208.67584l-60.2048 60.20352L138.18496 525.94688c-19.99488-19.99488-52.41216-19.99488-72.40704 0-19.99488 19.9936-19.99488 52.41216 0 72.40704l143.72992 143.72992-55.75552 55.75552c-19.9936 19.9936-19.9936 52.41216 0 72.40576 19.99616 19.99616 52.41344 19.99488 72.40832 0l55.75424-55.75424 143.7312 143.72992c19.9936 19.99488 52.41088 19.99488 72.40576 0 19.99616-19.99488 19.99616-52.41216 0-72.40704L354.32192 742.08512l60.2048-60.20352c59.99872 44.73856 132.47616 68.93184 208.67584 68.93184 93.49248 0 181.38752-36.40832 247.49696-102.51776s102.51776-154.00576 102.51776-247.49824C973.21728 307.30496 936.80768 219.40736 870.69952 153.30048zM798.29248 575.88736c-46.76736 46.76736-108.94976 72.5248-175.08992 72.5248s-128.32128-25.75744-175.08992-72.5248c-46.76864-46.76736-72.5248-108.94976-72.5248-175.08992 0.00128-66.14272 25.75616-128.32384 72.5248-175.0912 46.76736-46.76864 108.94976-72.5248 175.08992-72.5248 66.14016 0.00128 128.32256 25.75744 175.08992 72.52608 46.76736 46.76736 72.5248 108.94848 72.5248 175.08864C870.81728 466.9376 845.0624 529.11872 798.29248 575.88736z" fill="#d81e06" p-id="5559"></path></svg>