<?xml version="1.0" standalone="no"?><!DOCTYPE svg PUBLIC "-//W3C//DTD SVG 1.1//EN"
        "http://www.w3.org/Graphics/SVG/1.1/DTD/svg11.dtd">
<svg t="1698328304971" class="icon" viewBox="0 0 1024 1024" version="1.1" xmlns="http://www.w3.org/2000/svg" p-id="2624"
     width="16" height="16">
    <path d="M1024 298.666667V85.333333c0-25.6-17.066667-42.666667-42.666667-42.666666H298.666667c-25.6 0-42.666667 17.066667-42.666667 42.666666v213.333334l384 85.333333 384-85.333333z"
          fill="#41A5EE" p-id="2625"></path>
    <path d="M1024 298.666667H256v213.333333l405.333333 85.333333 362.666667-85.333333z" fill="#2B7CD3"
          p-id="2626"></path>
    <path d="M1024 512H256v213.333333l384 64 384-64z" fill="#185ABD" p-id="2627"></path>
    <path d="M1024 725.333333H256v213.333334c0 25.6 17.066667 42.666667 42.666667 42.666666h682.666666c25.6 0 42.666667-17.066667 42.666667-42.666666v-213.333334z"
          fill="#103F91" p-id="2628"></path>
    <path d="M588.8 256H256v597.333333h324.266667c29.866667 0 59.733333-29.866667 59.733333-59.733333V307.2c0-29.866667-21.333333-51.2-51.2-51.2z"
          opacity=".5" p-id="2629"></path>
    <path d="M546.133333 810.666667H51.2C21.333333 810.666667 0 789.333333 0 759.466667V264.533333C0 234.666667 21.333333 213.333333 51.2 213.333333h499.2c25.6 0 46.933333 21.333333 46.933333 51.2v499.2c0 25.6-21.333333 46.933333-51.2 46.933334z"
          fill="#185ABD" p-id="2630"></path>
    <path d="M435.2 682.666667H371.2L298.666667 448 226.133333 682.666667H162.133333L93.866667 341.333333h59.733333l46.933333 238.933334 72.533334-230.4h51.2l68.266666 230.4L443.733333 341.333333h59.733334l-68.266667 341.333334z"
          fill="#FFFFFF" p-id="2631"></path>
</svg>