<?xml version="1.0" standalone="no"?><!DOCTYPE svg PUBLIC "-//W3C//DTD SVG 1.1//EN" "http://www.w3.org/Graphics/SVG/1.1/DTD/svg11.dtd"><svg t="1705163839362" class="icon" viewBox="0 0 1024 1024" version="1.1" xmlns="http://www.w3.org/2000/svg" p-id="15502" xmlns:xlink="http://www.w3.org/1999/xlink" width="32" height="32"><path d="M294.912 245.76C141.312 245.76 18.432 370.688 18.432 522.24 18.432 675.84 143.36 798.72 294.912 798.72h430.08c153.6 2.048 278.528-122.88 278.528-276.48C1003.52 370.688 878.592 245.76 727.04 245.76H294.912z m0 507.904c-126.976 0-231.424-102.4-231.424-231.424 0-126.976 102.4-231.424 231.424-231.424h430.08c126.976 0 231.424 102.4 231.424 231.424 0 126.976-102.4 231.424-231.424 231.424h-430.08z m174.08-231.424c0-94.208-75.776-169.984-169.984-169.984S131.072 430.08 131.072 522.24c0 94.208 75.776 169.984 169.984 169.984s167.936-75.776 167.936-169.984z m0 0" fill="#CCCCCC" p-id="15503"></path></svg>