<?xml version="1.0" standalone="no"?><!DOCTYPE svg PUBLIC "-//W3C//DTD SVG 1.1//EN" "http://www.w3.org/Graphics/SVG/1.1/DTD/svg11.dtd"><svg height="1024" node-id="1" sillyvg="true" template-height="1024" template-width="1024" version="1.1" viewBox="0 0 1024 1024" width="1024" xmlns="http://www.w3.org/2000/svg" xmlns:xlink="http://www.w3.org/1999/xlink"><defs node-id="53"><linearGradient gradientUnits="objectBoundingBox" id="linearGradient-3" node-id="6" spreadMethod="pad" x1="0" x2="0.5" y1="-0.11715827" y2="0.75683814"><stop offset="0" stop-color="#d08787"></stop><stop offset="1" stop-color="#a34f4f"></stop></linearGradient></defs><g node-id="90"><path d="M 664.65 903.49 L 678.50 910.89 L 690.64 918.02 L 701.23 924.89 L 710.39 931.49 L 718.26 937.84 L 724.95 943.95 L 730.58 949.84 L 735.26 955.52 L 739.06 961.02 L 742.09 966.35 L 749.88 982.25 L 756.95 997.59 L 763.31 1012.40 L 769.00 1026.70 L 186.18 1024.93 L 191.95 1008.02 L 197.69 992.69 L 203.40 978.83 L 209.07 966.35 L 211.83 960.38 L 215.15 954.60 L 219.06 948.99 L 223.59 943.53 L 228.77 938.21 L 234.66 933.04 L 241.31 928.00 L 248.77 923.10 L 257.12 918.36 L 266.42 913.77 L 276.74 909.36 L 288.18 905.14 L 305.23 902.23 L 320.30 900.19 L 333.55 898.92 L 345.15 898.33 L 355.26 898.33 L 364.03 898.85 L 371.60 899.80 L 378.33 901.18 L 385.40 903.18 L 392.84 905.85 L 400.68 909.25 L 408.97 913.43 L 417.73 918.48 L 426.99 924.46 L 436.80 931.44 L 454.78 922.87 L 471.54 915.47 L 487.14 909.14 L 501.66 903.82 L 515.15 899.43 L 527.69 895.90 L 539.33 893.16 L 550.13 891.14 L 560.16 889.80 L 574.26 889.15 L 587.66 889.11 L 600.39 889.63 L 612.48 890.71 L 623.98 892.30 L 634.92 894.39 L 645.32 896.96 L 655.22 899.99 L 664.65 903.49 Z" fill="#4d80cf" fill-rule="evenodd" group-id="1" id="蒙版" node-id="11" stroke="none" target-height="137.59656" target-width="582.81976" target-x="186.18182" target-y="889.1063"></path><path d="M 579.84 996.41 L 579.84 1026.13 L 370.12 1025.49 L 370.12 996.41 L 405.64 998.66 L 434.00 1000.11 L 456.25 1000.88 L 473.32 1001.13 L 474.03 1001.13 L 491.09 1000.90 L 513.68 1000.14 L 542.87 998.69 L 579.84 996.41 L 579.84 996.41 Z" fill="#7facf1" fill-rule="evenodd" group-id="1" id="形状结合" node-id="12" stroke="none" target-height="29.71997" target-width="209.71558" target-x="370.12415" target-y="996.407"></path><path d="M 702.12 925.50 L 702.15 925.77 L 704.57 946.05 L 706.21 963.66 L 707.18 978.85 L 707.55 991.86 L 707.41 1002.92 L 706.86 1012.25 L 705.95 1020.05 L 704.75 1026.51 L 663.92 1026.38 L 697.04 922.09 L 702.12 925.50 Z M 254.45 919.80 L 287.93 1025.24 L 247.16 1025.12 L 246.04 1018.42 L 245.20 1010.36 L 244.74 1000.75 L 244.70 989.40 L 245.18 976.08 L 246.25 960.57 L 248.01 942.64 L 250.56 922.03 L 254.45 919.80 Z" fill="#3c6db8" fill-rule="evenodd" group-id="1" id="形状结合" node-id="13" stroke="none" target-height="106.70648" target-width="462.84723" target-x="244.69966" target-y="919.80096"></path><path d="M 695.53 918.30 L 697.95 945.08 L 699.44 967.20 L 700.14 985.24 L 700.21 999.74 L 699.77 1011.22 L 698.93 1020.13 L 697.80 1026.89 L 696.48 1031.91 L 617.02 1031.96 L 617.02 898.80 L 618.40 896.82 L 620.18 895.19 L 622.40 893.89 L 625.16 892.92 L 628.58 892.34 L 632.78 892.22 L 637.93 892.66 L 642.61 893.59 L 648.78 895.46 L 656.78 898.55 L 666.96 903.16 L 679.73 909.62 L 695.53 918.30 Z M 256.68 918.30 L 254.27 945.08 L 252.78 967.20 L 252.07 985.24 L 252.00 999.74 L 252.45 1011.22 L 253.29 1020.13 L 254.41 1026.89 L 255.73 1031.91 L 335.19 1031.96 L 335.19 898.80 L 333.81 896.82 L 332.04 895.19 L 329.81 893.89 L 327.05 892.92 L 323.64 892.34 L 319.43 892.22 L 314.28 892.66 L 309.60 893.59 L 303.43 895.46 L 295.44 898.55 L 285.25 903.16 L 272.48 909.62 L 256.68 918.30 Z" fill="#90623d" fill-rule="evenodd" group-id="1" id="形状结合" node-id="14" stroke="none" target-height="139.7398" target-width="448.20587" target-x="252.00452" target-y="892.2155"></path><path d="M 625.87 900.54 L 626.11 916.18 L 626.37 937.63 L 626.47 962.41 L 626.27 988.04 L 626.00 1000.57 L 625.59 1012.04 L 625.00 1022.98 L 624.27 1031.94 L 617.02 1031.96 L 617.02 898.80 L 618.25 897.00 L 619.79 895.49 L 621.68 894.24 L 623.98 893.27 L 624.91 896.49 L 625.87 900.54 Z M 326.34 900.54 L 326.10 916.18 L 325.85 937.63 L 325.74 962.41 L 325.94 988.04 L 326.22 1000.57 L 326.62 1012.04 L 327.21 1022.98 L 327.94 1031.94 L 335.19 1031.96 L 335.19 898.80 L 333.97 897.00 L 332.43 895.49 L 330.53 894.24 L 328.23 893.27 L 327.31 896.49 L 326.34 900.54 Z" fill="#604630" fill-rule="evenodd" group-id="1" id="形状结合" node-id="15" stroke="none" target-height="138.68903" target-width="300.73462" target-x="325.7401" target-y="893.2663"></path></g><path d="M 523.03 871.40 C 511.28 892.05 492.75 910.25 467.41 926.00 C 435.36 901.73 420.84 881.40 423.86 865.02 C 418.79 856.74 418.79 839.65 423.86 813.76 C 390.08 822.23 363.98 830.64 345.57 838.98 C 317.94 851.49 270.34 881.75 296.88 907.65 C 301.30 911.44 308.91 906.59 315.73 906.32 C 329.12 905.04 339.04 906.32 344.08 908.22 C 383.27 920.97 417.14 938.81 459.00 977.36 C 466.17 983.30 473.98 983.30 482.44 977.36 C 526.40 931.68 573.24 906.06 622.99 900.50 C 629.88 899.71 641.99 900.66 654.98 902.25 C 663.53 905.06 665.21 906.78 668.95 902.25 C 686.06 875.99 626.80 835.96 578.39 828.50 C 546.12 823.53 514.55 818.43 483.69 813.22 C 512.62 832.27 525.73 851.66 523.03 871.40 Z" fill="#5a8cd9" fill-rule="evenodd" id="蒙版" node-id="16" stroke="none" target-height="170.07861" target-width="415.71912" target-x="270.3369" target-y="813.2206"></path><path d="M 303.97 900.40 L 305.72 900.29 C 312.73 899.73 323.17 901.81 337.04 906.53 C 332.28 905.82 326.03 905.55 318.58 906.08 L 315.73 906.32 C 314.37 906.37 312.97 906.61 311.58 906.92 L 306.07 908.35 C 302.50 909.24 299.24 909.67 296.88 907.65 C 292.24 903.13 289.86 898.46 289.25 893.79 C 291.68 898.45 296.59 900.65 303.97 900.40 Z M 670.10 883.45 C 672.78 890.05 672.71 896.48 668.95 902.25 C 666.53 905.18 664.97 905.50 661.86 904.59 L 659.99 903.99 L 659.99 903.99 L 656.42 902.73 C 655.96 902.57 655.48 902.41 654.98 902.25 L 649.48 901.61 C 648.58 901.51 647.68 901.42 646.79 901.33 L 641.60 900.84 C 640.75 900.77 639.92 900.71 639.11 900.65 L 634.38 900.36 C 629.85 900.14 625.94 900.16 622.99 900.50 C 614.49 901.44 606.08 902.98 597.76 905.10 C 622.98 896.01 641.40 892.74 653.03 895.28 L 654.58 895.66 C 661.49 897.59 666.47 894.14 669.51 885.29 L 670.10 883.45 Z" fill="#5a8cd9" fill-opacity="0.5" fill-rule="evenodd" group-id="2" id="形状" node-id="17" stroke="none" target-height="26.223694" target-width="383.52795" target-x="289.25232" target-y="883.4491"></path><path d="M 523.01 916.13 C 523.01 918.25 521.00 919.97 518.53 919.97 C 516.06 919.97 514.05 918.25 514.05 916.13 C 514.05 914.01 516.06 912.29 518.53 912.29 C 521.00 912.29 523.01 914.01 523.01 916.13 Z" fill="#2a3547" fill-rule="evenodd" id="椭圆形" node-id="18" stroke="none" target-height="7.6762085" target-width="8.955566" target-x="514.05194" target-y="912.2909"></path><path d="M 515.61 915.33 L 515.61 1010.94 L 521.88 1010.94 L 521.88 915.33 C 521.88 914.36 520.83 913.87 518.75 913.87 C 516.66 913.87 515.61 914.36 515.61 915.33 Z" fill="#2b4d82" fill-rule="evenodd" id="路径-41" node-id="19" stroke="none" target-height="97.07422" target-width="6.265808" target-x="515.61304" target-y="913.8698"></path><path d="M 517.38 1006.75 L 520.06 1006.75 L 520.06 1022.10 L 517.38 1022.10 Z" fill="#2a3547" fill-rule="evenodd" id="矩形" node-id="20" stroke="none" target-height="15.352417" target-width="2.6866455" target-x="517.3775" target-y="1006.74524"></path><path d="M 525.43 1007.44 C 525.43 1011.68 522.43 1015.12 518.72 1015.12 C 515.01 1015.12 512.00 1011.68 512.00 1007.44 C 512.00 1003.20 515.01 999.76 518.72 999.76 C 522.43 999.76 525.43 1003.20 525.43 1007.44 Z" fill="#2b4d82" fill-rule="evenodd" id="椭圆形" node-id="21" stroke="none" target-height="15.352417" target-width="13.43335" target-x="512" target-y="999.76337"></path><path d="M 420.61 916.13 C 420.61 918.25 418.60 919.97 416.13 919.97 C 413.66 919.97 411.65 918.25 411.65 916.13 C 411.65 914.01 413.66 912.29 416.13 912.29 C 418.60 912.29 420.61 914.01 420.61 916.13 Z" fill="#2a3547" fill-rule="evenodd" id="椭圆形" node-id="22" stroke="none" target-height="7.6762085" target-width="8.955597" target-x="411.65195" target-y="912.2909"></path><path d="M 413.21 915.33 L 413.21 1010.94 L 419.48 1010.94 L 419.48 915.33 C 419.48 914.36 418.43 913.87 416.35 913.87 C 414.26 913.87 413.21 914.36 413.21 915.33 Z" fill="#2b4d82" fill-rule="evenodd" id="路径-41" node-id="23" stroke="none" target-height="97.07422" target-width="6.2657776" target-x="413.21307" target-y="913.8698"></path><path d="M 414.98 1006.75 L 417.66 1006.75 L 417.66 1022.10 L 414.98 1022.10 Z" fill="#2a3547" fill-rule="evenodd" id="矩形" node-id="24" stroke="none" target-height="15.352417" target-width="2.686676" target-x="414.9775" target-y="1006.74524"></path><path d="M 423.03 1007.44 C 423.03 1011.68 420.03 1015.12 416.32 1015.12 C 412.61 1015.12 409.60 1011.68 409.60 1007.44 C 409.60 1003.20 412.61 999.76 416.32 999.76 C 420.03 999.76 423.03 1003.20 423.03 1007.44 Z" fill="#2b4d82" fill-rule="evenodd" id="椭圆形" node-id="25" stroke="none" target-height="15.352417" target-width="13.43338" target-x="409.6" target-y="999.76337"></path><path d="M 423.82 843.00 C 372.06 845.09 313.93 863.64 327.94 882.15 C 341.91 893.70 367.74 872.62 396.02 890.10 C 412.95 900.57 416.42 903.75 431.97 918.81 C 439.72 926.33 454.31 949.93 467.53 949.52 C 480.74 949.11 493.24 929.21 503.56 919.36 C 509.65 913.54 530.02 889.51 549.31 882.81 C 570.09 875.59 582.18 882.30 612.56 881.45 C 642.94 880.59 610.28 845.75 526.14 843.00 C 492.68 838.82 480.87 833.81 423.82 843.00 Z" fill="#3c6db8" fill-rule="evenodd" id="路径-28" node-id="26" stroke="none" target-height="116.123474" target-width="329.01477" target-x="313.92572" target-y="833.80615"></path><path d="M 400.29 828.14 C 399.61 845.83 400.03 857.11 401.57 861.97 C 407.94 886.07 435.30 925.47 462.60 924.05 C 492.70 924.74 521.69 884.07 526.18 861.97 C 529.93 851.11 524.86 835.38 526.87 828.14 C 531.72 823.52 511.92 825.15 467.47 833.03 L 400.29 828.14 Z" fill="#ffb5a1" fill-rule="evenodd" id="蒙版" node-id="27" stroke="none" target-height="101.95264" target-width="132.11285" target-x="399.6089" target-y="823.51654"></path><path d="M 505.70 899.61 C 494.43 912.75 479.80 923.41 464.75 924.03 L 462.60 924.05 C 448.77 924.77 434.93 915.02 423.80 902.08 C 450.76 908.58 477.52 907.93 504.06 900.12 L 505.70 899.61 Z" fill="#ffffff" fill-rule="evenodd" id="路径" node-id="28" stroke="none" target-height="25.157288" target-width="81.895996" target-x="423.80438" target-y="899.6133"></path><path d="M 430.64 830.34 L 467.47 833.03 L 479.23 830.99 L 479.23 830.99 L 489.72 829.28 L 489.72 829.28 L 498.92 827.89 L 498.92 827.89 L 504.99 827.06 L 504.99 827.06 L 510.33 826.42 L 510.33 826.42 L 514.96 825.95 L 514.96 825.95 L 517.64 825.75 L 517.64 825.75 L 520.00 825.62 L 520.00 825.62 L 522.95 825.58 C 523.24 825.59 523.51 825.60 523.77 825.61 L 525.17 825.73 L 525.17 825.73 L 526.26 825.93 C 527.80 826.33 528.00 827.06 526.87 828.14 C 526.25 830.40 526.31 833.49 526.58 837.01 L 527.18 843.70 C 527.73 849.89 528.05 856.54 526.18 861.97 C 525.23 866.62 523.21 872.08 520.32 877.81 C 518.83 877.94 517.30 878.01 515.72 878.01 C 490.06 878.01 454.02 864.55 407.57 837.62 L 400.12 833.25 L 400.15 832.34 L 400.15 832.34 L 430.64 830.34 Z" fill="#f5987f" fill-rule="evenodd" id="路径" node-id="29" stroke="none" target-height="52.422913" target-width="127.934906" target-x="400.11972" target-y="825.584"></path><path d="M 845.22 356.52 L 840.88 364.18 L 836.34 371.23 L 831.60 377.69 L 826.66 383.61 L 821.32 389.28 L 815.79 394.51 L 810.07 399.31 L 804.17 403.70 L 795.92 409.07 L 787.38 413.88 L 778.51 418.14 L 769.42 421.92 L 760.08 425.32 L 750.47 428.33 L 735.83 432.24 L 720.81 435.61 L 705.63 438.60 L 690.31 441.38 L 659.73 446.99 L 642.92 450.55 L 625.26 454.75 L 606.73 459.64 L 587.29 465.25 L 566.89 471.61 L 545.51 478.77 L 523.11 486.76 L 499.63 495.63 L 501.76 478.77 L 504.26 463.37 L 507.10 449.35 L 510.24 436.61 L 513.66 425.07 L 517.32 414.62 L 521.20 405.21 L 525.29 396.74 L 529.57 389.15 L 534.02 382.36 L 538.63 376.33 L 543.41 370.99 L 548.36 366.29 L 553.48 362.20 L 558.78 358.67 L 560.77 357.24 L 562.24 355.73 L 563.28 354.14 L 563.94 352.46 L 564.35 350.02 L 564.29 347.31 L 563.71 344.27 L 562.23 339.69 L 560.01 334.48 L 554.74 323.44 L 552.12 317.58 L 549.81 311.52 L 548.55 307.40 L 547.65 303.26 L 547.10 299.09 L 547.02 294.91 L 547.49 290.73 L 548.54 286.50 L 549.70 283.49 L 551.31 280.43 L 553.40 277.32 L 556.03 274.12 L 558.84 271.29 L 562.29 268.39 L 566.46 265.39 L 571.45 262.32 L 576.38 259.68 L 582.17 256.99 L 588.92 254.24 L 596.73 251.45 L 607.04 248.27 L 619.31 245.08 L 633.76 241.89 L 649.95 237.91 L 665.08 234.59 L 679.20 231.88 L 692.37 229.76 L 704.64 228.16 L 717.66 226.90 L 729.71 226.15 L 740.86 225.87 L 751.16 226.02 L 760.65 226.57 L 770.67 227.61 L 779.85 229.01 L 788.24 230.73 L 795.91 232.75 L 802.90 235.06 L 810.08 237.93 L 816.57 241.02 L 822.43 244.33 L 827.71 247.84 L 832.44 251.55 L 837.01 255.75 L 841.06 260.08 L 844.62 264.56 L 847.72 269.20 L 850.36 274.00 L 852.65 279.06 L 854.52 284.20 L 855.99 289.46 L 857.07 294.84 L 857.75 300.35 L 858.07 307.27 L 857.83 314.26 L 857.04 321.34 L 855.67 328.54 L 853.81 335.59 L 851.46 342.60 L 848.60 349.57 L 845.22 356.52 Z" fill="#edb41f" fill-rule="evenodd" group-id="3" node-id="88" stroke="none" target-height="269.75473" target-width="358.43317" target-x="499.63354" target-y="225.87112"></path><path d="M 843.38 374.87 L 838.15 382.19 L 832.77 388.86 L 827.24 394.90 L 821.57 400.35 L 815.51 405.50 L 809.30 410.17 L 802.95 414.38 L 796.44 418.15 L 789.72 421.57 L 782.85 424.65 L 775.84 427.39 L 768.67 429.81 L 758.98 432.57 L 749.06 434.93 L 738.93 436.86 L 732.48 437.91 L 732.48 437.91 L 725.97 438.83 L 725.97 438.83 L 719.43 439.65 L 716.14 440.03 L 709.53 440.71 L 709.53 440.71 L 728.65 426.69 L 741.24 424.47 L 752.98 421.80 L 763.91 418.71 L 774.09 415.22 L 783.56 411.35 L 792.37 407.11 L 800.55 402.51 L 808.14 397.57 L 815.18 392.27 L 821.69 386.62 L 827.69 380.61 L 833.21 374.23 L 838.26 367.47 L 842.86 360.30 L 847.00 352.71 L 850.70 344.67 L 853.94 336.14 L 856.72 327.10 L 859.02 317.51 L 860.82 307.34 L 861.48 312.95 L 861.73 318.60 L 861.57 324.31 L 860.99 330.10 L 860.03 335.81 L 858.71 341.52 L 857.01 347.24 L 854.93 352.97 L 851.68 360.39 L 847.83 367.68 L 843.38 374.87 Z" fill="#d19800" fill-rule="evenodd" group-id="4" id="路径" node-id="33" stroke="none" target-height="133.37094" target-width="152.19409" target-x="709.53314" target-y="307.34015"></path><path d="M 697.32 580.06 C 721.81 522.64 754.53 502.60 795.47 519.96 C 856.87 545.99 793.27 671.78 722.41 656.93 C 675.18 647.03 666.81 621.41 697.32 580.06 Z" fill="#ffb5a1" fill-rule="evenodd" id="路径-24" node-id="34" stroke="none" target-height="169.17953" target-width="190.05817" target-x="666.8143" target-y="502.60294"></path><path d="M 715.48 615.05 C 729.33 588.93 745.82 575.01 764.97 573.28" fill="none" id="路径-42" node-id="35" stroke="#c26b6b" stroke-linecap="round" stroke-width="11.0529785" target-height="41.77179" target-width="49.489807" target-x="715.4849" target-y="573.2826"></path><path d="M 735.51 589.57 C 748.14 592.28 756.51 599.24 760.61 610.44" fill="none" id="路径-43" node-id="36" stroke="#c26b6b" stroke-linecap="round" stroke-width="11.0529785" target-height="20.875305" target-width="25.101196" target-x="735.5066" target-y="589.5652"></path><path d="M 253.24 587.28 L 248.26 576.35 L 243.23 566.72 L 238.19 558.29 L 233.12 550.95 L 228.05 544.61 L 222.96 539.18 L 217.86 534.58 L 212.73 530.74 L 207.57 527.60 L 202.35 525.11 L 197.05 523.24 L 191.65 521.97 L 186.11 521.28 L 180.39 521.17 L 174.47 521.67 L 168.31 522.81 L 161.86 524.63 L 155.09 527.18 L 151.06 529.15 L 147.48 531.34 L 144.31 533.75 L 141.53 536.37 L 139.09 539.22 L 136.45 543.15 L 134.28 547.35 L 132.60 551.85 L 131.38 556.68 L 130.66 561.58 L 130.34 566.68 L 130.45 572.00 L 131.00 577.56 L 132.31 584.86 L 134.29 592.30 L 136.96 599.90 L 140.18 607.30 L 143.96 614.57 L 148.31 621.72 L 153.14 628.56 L 158.39 634.99 L 164.07 641.03 L 168.63 645.28 L 173.35 649.16 L 178.23 652.69 L 183.28 655.86 L 188.55 658.67 L 193.92 660.99 L 199.38 662.84 L 204.96 664.23 L 210.63 665.09 L 216.36 665.37 L 222.19 665.06 L 228.15 664.16 L 236.37 662.16 L 243.42 659.93 L 249.40 657.50 L 254.45 654.90 L 258.67 652.15 L 262.17 649.26 L 265.01 646.24 L 267.28 643.06 L 269.01 639.73 L 270.24 636.19 L 270.97 632.42 L 271.19 628.36 L 270.87 623.97 L 269.95 619.18 L 268.35 613.95 L 265.99 608.20 L 262.77 601.89 L 258.56 594.93 L 253.24 587.28 Z" fill="#ffb5a1" fill-rule="evenodd" group-id="5" id="路径-24备份" node-id="37" stroke="none" target-height="144.19855" target-width="140.85565" target-x="130.33887" target-y="521.17175"></path><path d="M 223.70 616.14 L 219.32 608.43 L 214.92 601.71 L 210.51 595.91 L 206.10 590.95 L 201.67 586.73 L 197.23 583.21 L 192.76 580.33 L 188.24 578.03 L 183.66 576.28 L 178.99 575.07 L 174.21 574.37" fill="none" group-id="6" id="路径-42" node-id="38" stroke="#c26b6b" stroke-linecap="round" stroke-width="11.0529785" target-height="41.77179" target-width="49.48979" target-x="174.20847" target-y="574.37256"></path><path d="M 206.00 593.38 L 201.25 594.67 L 197.06 596.34 L 193.36 598.37 L 190.11 600.75 L 187.25 603.51 L 184.77 606.65 L 182.65 610.22 L 180.90 614.26" fill="none" group-id="7" id="路径-43" node-id="39" stroke="#c26b6b" stroke-linecap="round" stroke-width="11.0529785" target-height="20.875305" target-width="25.101166" target-x="180.89645" target-y="593.3819"></path><path d="M 464.88 224.32 L 474.50 224.32 C 616.34 224.32 731.32 339.30 731.32 481.14 C 731.32 482.52 731.31 483.91 731.29 485.29 L 729.42 600.34 C 727.27 733.77 623.28 843.31 490.15 852.41 L 466.68 854.01 L 466.68 854.01 L 451.40 852.90 C 321.54 843.45 219.31 738.31 213.49 608.24 L 208.31 492.62 C 201.97 350.93 311.70 230.92 453.39 224.58 C 457.22 224.40 461.05 224.32 464.88 224.32 Z" fill="#ffcdbc" fill-rule="evenodd" id="蒙版" node-id="40" stroke="none" target-height="629.6952" target-width="529.3472" target-x="201.97139" target-y="224.31845"></path><path d="M 256.94 620.13 C 290.54 620.13 317.78 647.36 317.78 680.96 C 317.78 713.83 291.71 740.61 259.12 741.76 L 258.07 741.77 C 236.77 710.67 222.14 674.66 216.20 635.79 C 226.98 626.05 241.27 620.13 256.94 620.13 Z M 682.79 612.52 C 700.21 612.52 715.93 619.85 727.02 631.59 C 721.89 668.76 708.80 703.45 689.48 733.83 C 687.28 734.07 685.05 734.19 682.79 734.19 C 649.19 734.19 621.95 706.96 621.95 673.36 C 621.95 639.76 649.19 612.52 682.79 612.52 Z" fill="#ffb5a1" fill-opacity="0.43815103" fill-rule="evenodd" group-id="8" id="形状结合" node-id="41" stroke="none" target-height="129.2508" target-width="510.81848" target-x="216.20026" target-y="612.52246"></path><path d="M 184.62 390.84 C 170.31 426.29 170.31 458.76 184.62 488.25 C 206.07 532.48 276.25 503.25 308.21 477.29 C 364.49 494.48 408.74 487.94 440.97 457.67 C 480.24 481.11 521.00 487.62 563.25 477.21 C 602.14 498.43 642.55 499.53 684.47 480.52 C 702.80 520.72 721.57 531.50 740.77 512.86 C 755.70 492.61 759.67 452.85 752.67 393.58 C 617.22 268.88 517.41 206.29 453.25 205.79 C 389.09 205.28 305.84 266.45 203.50 389.28 L 184.62 390.84 Z" fill="#382222" fill-rule="evenodd" id="蒙版" node-id="42" stroke="none" target-height="327.1981" target-width="589.3591" target-x="170.31012" target-y="205.2833"></path><path d="M 690.60 456.12 C 704.84 491.52 718.65 512.59 732.02 519.34 C 715.86 527.53 700.01 514.60 684.47 480.52 C 642.55 499.53 602.14 498.43 563.25 477.21 C 526.31 486.31 490.51 482.48 455.85 465.71 L 448.19 456.12 C 491.08 469.49 532.03 471.98 571.02 463.58 C 609.49 489.56 649.35 487.07 690.60 456.12 Z M 282.03 463.58 L 307.83 477.59 C 301.15 482.98 292.83 488.49 283.67 493.45 L 279.02 495.88 C 250.73 510.14 215.93 518.38 195.51 502.14 C 223.62 515.11 251.80 503.13 280.06 466.20 L 282.03 463.58 Z M 562.12 266.61 C 563.23 266.61 564.19 267.84 565.02 270.32 L 565.50 271.95 L 565.50 271.95 L 565.95 273.88 L 565.95 273.88 L 566.37 276.11 L 566.37 276.11 L 566.75 278.63 L 566.75 278.63 L 567.11 281.45 L 567.11 281.45 L 567.43 284.57 L 567.43 284.57 L 567.71 287.98 L 567.71 287.98 L 568.08 293.66 L 568.08 293.66 L 568.29 297.82 L 568.29 297.82 L 568.53 304.61 L 568.53 304.61 L 568.66 309.51 L 568.66 309.51 L 568.81 320.20 L 568.81 320.20 L 568.84 329.00 L 568.84 329.00 L 568.79 338.46 L 568.79 338.46 L 568.61 352.12 L 568.61 352.12 L 568.40 363.14 L 568.40 363.14 L 568.11 374.83 L 568.11 374.83 C 544.41 344.52 504.44 329.36 448.19 329.36 C 392.82 329.36 370.29 365.41 380.59 437.49 L 381.10 440.95 L 300.98 450.98 L 313.99 326.36 L 313.99 326.36 L 317.36 291.67 L 317.36 291.67 L 317.96 284.52 L 317.96 284.52 L 318.15 281.22 C 318.15 281.10 318.16 281.01 318.16 280.92 C 318.16 280.40 319.04 279.89 320.70 279.40 L 322.30 278.97 C 322.60 278.90 322.92 278.83 323.25 278.76 L 325.40 278.35 L 325.40 278.35 L 329.26 277.73 L 329.26 277.73 L 333.85 277.13 L 333.85 277.13 L 341.00 276.35 L 341.00 276.35 L 351.43 275.40 L 351.43 275.40 L 368.43 274.15 L 368.43 274.15 L 384.77 273.14 L 384.77 273.14 L 411.44 271.73 L 411.44 271.73 L 426.94 271.02 L 426.94 271.02 L 461.97 269.59 L 461.97 269.59 L 517.70 267.73 L 517.70 267.73 L 561.21 266.61 L 561.21 266.61 L 562.12 266.61 Z" fill="#221010" fill-rule="evenodd" id="形状" node-id="43" stroke="none" target-height="260.92984" target-width="536.51874" target-x="195.50623" target-y="266.605"></path><path d="M 480.70 93.09 C 495.01 93.09 507.16 103.37 511.50 117.64 C 686.18 141.11 769.14 248.09 760.41 438.57 C 680.93 455.25 580.75 463.58 459.88 463.58 C 339.00 463.58 243.67 458.54 173.89 448.44 C 166.16 235.26 258.37 124.37 450.51 115.76 L 450.52 115.77 C 455.31 102.48 467.02 93.09 480.70 93.09 Z M 459.88 302.54 C 374.41 303.89 334.04 346.51 338.76 430.41 C 417.49 442.31 492.50 442.31 563.78 430.41 C 582.91 400.91 544.85 302.31 459.88 302.54 Z" fill="#ffc631" fill-rule="evenodd" id="蒙版" node-id="44" stroke="none" target-height="370.4926" target-width="602.9802" target-x="166.16113" target-y="93.09091"></path><path d="M 518.08 119.96 L 514.12 118.00 L 521.87 119.15 C 689.46 145.42 768.97 251.89 760.41 438.57 C 687.04 453.96 596.04 462.25 487.40 463.44 L 469.13 463.57 C 466.06 463.58 462.98 463.58 459.88 463.58 L 439.71 463.54 C 433.06 463.50 426.50 463.46 420.02 463.39 L 400.82 463.15 L 400.82 463.15 L 382.11 462.82 L 382.11 462.82 L 363.88 462.38 C 360.89 462.30 357.91 462.22 354.95 462.13 L 337.45 461.56 L 337.45 461.56 L 320.44 460.88 L 320.44 460.88 C 326.04 446.18 332.05 432.64 338.39 420.16 C 338.44 423.51 338.56 426.92 338.76 430.41 C 417.49 442.31 492.50 442.31 563.78 430.41 C 582.91 400.91 544.85 302.31 459.88 302.54 C 453.03 302.65 446.48 303.02 440.21 303.66 C 462.85 288.92 485.47 278.73 506.35 270.49 L 514.60 267.29 L 514.60 267.29 L 522.65 264.27 L 522.65 264.27 L 541.68 257.21 L 541.68 257.21 L 548.80 254.50 C 556.92 251.34 564.39 248.19 571.02 244.80 C 614.63 222.49 609.03 190.43 578.08 160.52 L 575.01 157.63 C 573.96 156.67 572.89 155.72 571.78 154.76 L 568.41 151.91 C 567.84 151.43 567.26 150.96 566.67 150.49 L 563.08 147.67 L 563.08 147.67 L 559.36 144.87 L 559.36 144.87 L 555.50 142.10 C 554.84 141.64 554.19 141.18 553.52 140.72 L 549.48 138.00 C 548.11 137.10 546.72 136.20 545.31 135.30 L 541.03 132.65 C 540.31 132.21 539.58 131.77 538.85 131.33 L 534.41 128.73 C 533.66 128.30 532.90 127.87 532.15 127.44 L 527.55 124.90 L 527.55 124.90 L 522.86 122.41 L 522.86 122.41 L 518.08 119.96 L 518.08 119.96 Z M 510.92 115.88 L 511.38 117.21 L 507.76 116.54 C 501.86 115.51 493.97 114.50 485.81 115.16 C 489.86 109.17 489.50 101.91 484.72 93.38 C 496.04 94.92 505.57 102.94 510.19 114.00 L 510.92 115.88 Z" fill="#e9a900" fill-rule="evenodd" id="形状" node-id="45" stroke="none" target-height="370.206" target-width="448.5272" target-x="320.43954" target-y="93.37752"></path><path d="M 621.57 601.80 C 621.57 621.75 608.63 637.92 592.67 637.92 C 576.71 637.92 563.78 621.75 563.78 601.80 C 563.78 581.85 576.71 565.68 592.67 565.68 C 608.63 565.68 621.57 581.85 621.57 601.80 Z" fill="#623d3d" fill-rule="evenodd" id="椭圆形备份-3" node-id="46" stroke="none" target-height="72.24164" target-width="57.793335" target-x="563.7774" target-y="565.67773"></path><path d="M 375.95 601.80 C 375.95 621.75 363.01 637.92 347.05 637.92 C 331.09 637.92 318.16 621.75 318.16 601.80 C 318.16 581.85 331.09 565.68 347.05 565.68 C 363.01 565.68 375.95 581.85 375.95 601.80 Z" fill="#623d3d" fill-rule="evenodd" id="椭圆形备份-4" node-id="47" stroke="none" target-height="72.24164" target-width="57.793335" target-x="318.15567" target-y="565.67773"></path><path d="M 562.13 525.88 L 568.75 524.10 L 577.10 522.36 L 587.46 520.70 L 600.13 519.16 L 609.30 518.52 L 620.65 518.40 L 634.53 518.91 L 651.31 520.20 L 671.37 522.41 L 663.95 517.06 L 656.64 512.46 L 649.42 508.56 L 642.29 505.31 L 635.22 502.69 L 628.20 500.66 L 621.21 499.22 L 614.23 498.33 L 607.23 498.00 L 600.20 498.22 L 593.11 499.00 L 586.97 500.46 L 581.73 502.24 L 577.27 504.29 L 573.51 506.60 L 570.36 509.14 L 567.76 511.91 L 565.65 514.94 L 564.02 518.25 L 562.84 521.88 L 562.13 525.88 Z" fill="#623d3d" fill-rule="evenodd" group-id="9" id="路径-27" node-id="48" stroke="none" target-height="27.882507" target-width="109.242676" target-x="562.12537" target-y="497.99805"></path><path d="M 384.47 525.88 L 377.84 524.10 L 369.49 522.36 L 359.13 520.70 L 346.46 519.16 L 337.30 518.52 L 325.94 518.40 L 312.06 518.91 L 295.29 520.20 L 275.23 522.41 L 282.65 517.06 L 289.96 512.46 L 297.17 508.56 L 304.30 505.31 L 311.37 502.69 L 318.39 500.66 L 325.38 499.22 L 332.37 498.33 L 339.37 498.00 L 346.40 498.22 L 353.49 499.00 L 359.62 500.46 L 364.87 502.24 L 369.32 504.29 L 373.08 506.60 L 376.23 509.14 L 378.84 511.91 L 380.94 514.94 L 382.58 518.25 L 383.76 521.88 L 384.47 525.88 Z" fill="#623d3d" fill-rule="evenodd" group-id="10" id="路径-27备份" node-id="49" stroke="none" target-height="27.882507" target-width="109.242676" target-x="275.2269" target-y="497.99805"></path><path d="M 464.50 545.81 C 465.57 542.96 468.84 541.48 471.81 542.51 C 474.78 543.53 476.32 546.67 475.25 549.52 L 473.18 555.10 C 451.65 613.75 447.74 644.74 456.74 646.78 L 456.87 646.80 L 458.66 646.77 C 468.20 646.39 477.91 643.58 487.83 638.27 L 490.12 637.00 C 492.83 635.45 496.34 636.30 497.95 638.90 C 499.57 641.50 498.68 644.86 495.97 646.41 C 483.62 653.48 471.25 657.28 458.92 657.72 L 456.46 657.77 L 455.75 657.73 C 432.67 654.94 437.39 618.12 464.50 545.81 Z" fill="#f28080" fill-rule="nonzero" id="路径-30" node-id="50" stroke="none" target-height="116.28613" target-width="66.89816" target-x="432.67035" target-y="541.4824"></path><path d="M 417.05 701.46 L 515.68 687.01 C 515.68 727.18 502.75 750.36 476.90 756.54 C 451.05 762.71 431.10 744.36 417.05 701.46 Z" fill="url(#linearGradient-3)" fill-rule="evenodd" id="路径-31" node-id="51" stroke="none" target-height="75.70325" target-width="98.63388" target-x="417.04727" target-y="687.0109"></path></svg>